<svg width="90" height="88" viewBox="0 0 90 88" fill="none" xmlns="http://www.w3.org/2000/svg">
<g opacity="0.9">
<path d="M41.4075 1.36913L40.545 1.45893L39.6825 4.5943L38.8125 7.73716L37.425 8.01403C35.88 8.32083 35.19 8.49294 33.9225 8.87457C33.4425 9.01675 33.015 9.12899 32.9625 9.11403C32.91 9.09906 31.95 8.06641 30.8325 6.80927C29.715 5.55212 28.755 4.49702 28.695 4.45961C28.6275 4.41471 28.455 4.44464 28.1925 4.55689C25.83 5.55961 23.1975 6.98886 20.6475 8.65008L19.5825 9.346L20.1075 10.9025C20.3925 11.7555 20.8425 13.1249 21.105 13.9406L21.585 15.4222L20.64 16.2453C20.115 16.7018 19.1475 17.5923 18.4875 18.2208L17.28 19.3657L17.0625 19.246C16.5075 18.9542 11.6625 16.6868 11.5875 16.6868C11.4975 16.6943 10.1625 18.2807 9.35995 19.3508C8.20495 20.8773 6.93745 22.9052 6.14245 24.4766L5.77495 25.2099L8.02495 27.5072C9.26245 28.7644 10.275 29.8419 10.275 29.8943C10.275 29.9467 10.17 30.231 10.0425 30.5304C9.65995 31.4358 9.09745 33.0222 8.77495 34.0997C8.60995 34.661 8.46745 35.1324 8.45245 35.1399C8.44495 35.1548 6.98995 35.3419 5.22745 35.5664C3.46495 35.7909 2.00245 35.9929 1.97995 36.0154C1.91245 36.0827 1.66495 37.1902 1.46245 38.3127C1.11745 40.2882 1.02745 41.3657 1.01995 43.6555L1.01245 45.8181L4.10245 46.7236L7.19245 47.6215L7.23745 48.1154C7.34995 49.4399 7.52245 50.6821 7.77745 51.9841C7.92745 52.7773 8.03995 53.4358 8.01745 53.4508C8.00245 53.4657 6.82495 54.1916 5.39995 55.0596C3.97495 55.9276 2.74495 56.6834 2.66995 56.7433C2.52745 56.848 2.52745 56.8705 2.80495 57.8133C3.48745 60.1106 4.50745 62.6623 5.63995 64.8923C6.16495 65.9399 6.33745 66.2242 6.45745 66.2242C6.53995 66.2242 7.91245 65.9923 9.50995 65.7004C11.1075 65.4161 12.51 65.1766 12.63 65.1616C12.8325 65.1392 12.8925 65.214 13.5675 66.2018C13.965 66.7855 14.8275 67.9378 15.48 68.7684C16.6725 70.265 16.6725 70.265 16.83 70.1304C16.92 70.048 18.765 68.5514 20.94 66.7929C23.115 65.0419 24.915 63.5678 24.9375 63.5304C24.96 63.4855 24.7875 63.2086 24.5475 62.9093C20.88 58.4045 18.57 53.0242 17.955 47.5916C17.7375 45.631 17.85 42.548 18.2325 40.4079C20.19 29.2882 29.07 20.3909 40.2 18.378C42.0075 18.0562 42.7425 17.9963 45.1125 17.9963C47.955 17.9963 49.4925 18.1834 51.9375 18.8195C59.7 20.8399 66.15 26.1603 69.6675 33.4487C70.905 36.0154 71.6925 38.627 72.12 41.6052C72.285 42.7351 72.345 46.3793 72.2325 47.5841C71.835 51.5351 70.56 55.4861 68.6175 58.7861C67.9875 59.8562 66.9525 61.3453 66.3375 62.0712C66.0225 62.4378 65.7 62.8344 65.6175 62.9467L65.475 63.1412L67.665 64.9671C69.51 66.4936 71.3025 67.9378 73.4925 69.6365L73.8975 69.9508L74.0625 69.7562C74.49 69.2399 75.855 67.3467 76.59 66.2467C77.2275 65.2963 77.445 65.027 77.5725 65.027C77.6625 65.027 79.05 65.3188 80.655 65.6705C83.46 66.2841 83.58 66.3065 83.685 66.1718C83.8725 65.9249 85.4025 62.7671 85.8375 61.7344C86.31 60.612 87.2625 57.8283 87.345 57.3494L87.39 57.0426L86.5725 56.3991C86.1225 56.0474 84.96 55.2018 84 54.5133C82.8225 53.6827 82.2375 53.2263 82.245 53.144C82.2525 53.0691 82.365 52.4256 82.485 51.7072C82.6125 50.9889 82.77 49.8889 82.8375 49.2753C82.905 48.6542 82.9725 48.078 82.995 47.9957C83.0175 47.861 83.4375 47.7038 86.07 46.8358L89.1225 45.8331L89.07 44.4861C88.98 41.9943 88.7775 39.9215 88.4625 38.0508C88.215 36.5991 88.1325 36.2324 88.0275 36.195C87.975 36.18 86.6025 35.9855 84.975 35.7759C83.3475 35.5589 81.9675 35.3569 81.9075 35.327C81.8475 35.297 81.735 35.0426 81.66 34.7508C81.42 33.8678 81.075 32.8576 80.5725 31.5929C80.31 30.9195 80.1 30.3208 80.115 30.2684C80.13 30.2086 81.0825 29.1909 82.245 28.0086C83.4 26.8263 84.375 25.8086 84.405 25.7562C84.5025 25.5916 83.055 23.0324 81.6975 20.9671C81.3075 20.3759 80.5875 19.3582 80.0925 18.6997C79.305 17.6596 79.17 17.5099 79.0275 17.5548C78.9375 17.5773 77.64 18.0712 76.1475 18.6399C74.655 19.2161 73.395 19.68 73.3575 19.68C73.32 19.68 72.6525 19.044 71.8725 18.2732C71.1 17.495 70.1475 16.6045 69.7725 16.2827C69.39 15.961 69.075 15.6392 69.075 15.5718C69.075 15.5045 69.45 14.1725 69.9 12.6161C70.3575 11.0596 70.725 9.72763 70.725 9.6528C70.725 9.52559 70.5075 9.35348 69.15 8.45553C67.4925 7.34804 65.6175 6.31539 63.63 5.40246C63.0075 5.11811 62.4225 4.85621 62.325 4.82627C62.175 4.78138 61.875 5.05076 59.8575 7.05621L57.5625 9.33851L56.4 8.97185C55.185 8.59022 52.8675 7.9841 52.26 7.8943C52.065 7.86437 51.8775 7.8045 51.84 7.75212C51.8025 7.70723 51.4575 6.3528 51.075 4.75144C50.2725 1.3392 50.325 1.57117 50.265 1.57117C50.235 1.57117 49.7925 1.51879 49.275 1.45144C48.0525 1.30178 42.66 1.24192 41.4075 1.36913ZM47.925 2.94056L49.005 3.03036L49.4325 4.78886C49.665 5.75416 50.0025 7.13852 50.175 7.86437L50.49 9.18886L51.555 9.3909C53.0475 9.66777 54.96 10.1691 56.5875 10.7079L57.9825 11.1644L60.225 8.9494C61.5675 7.63239 62.5275 6.73444 62.61 6.73444C62.7975 6.73444 65.7675 8.23104 66.75 8.82968C67.35 9.18886 68.7525 10.0868 68.91 10.214C68.9175 10.2215 68.535 11.5684 68.0625 13.1997C67.5825 14.8385 67.2 16.2079 67.215 16.2378C67.23 16.2678 67.6125 16.597 68.0625 16.9637C69.69 18.2882 70.575 19.1412 72.51 21.2739L72.825 21.6256L75.5475 20.5855C77.04 20.0093 78.3525 19.5229 78.4575 19.4929C78.6375 19.448 78.6975 19.5004 79.155 20.129C80.19 21.5283 81.78 24.0276 82.3425 25.1276L82.5075 25.4419L80.385 27.6195C79.215 28.8093 78.255 29.8344 78.24 29.9018C78.225 29.9616 78.5475 30.8596 78.9675 31.8997C79.62 33.5535 80.0775 34.9453 80.4225 36.3671L80.52 36.7787L83.37 37.1603C86.9025 37.6317 86.7675 37.6018 86.8125 37.8113C86.91 38.2304 87.225 40.6923 87.3 41.6052C87.345 42.1589 87.39 43.0868 87.3975 43.6555L87.4125 44.6957L84.4725 45.6759L81.525 46.6562L81.4875 46.8807C81.4725 47.0004 81.3825 47.7787 81.3 48.6018C81.1125 50.3378 80.8575 51.9766 80.5875 53.0991C80.4825 53.5331 80.4 53.8997 80.4 53.9147C80.4 53.9297 81.2025 54.5059 82.185 55.1943C83.16 55.8827 84.33 56.7208 84.7725 57.0501C85.7175 57.746 85.68 57.5365 85.125 59.1229C84.66 60.4474 84.1275 61.7045 83.3925 63.2236L82.8 64.4508L82.485 64.4059C82.305 64.3834 80.9325 64.0991 79.4325 63.7623C77.9325 63.4331 76.68 63.1787 76.65 63.1936C76.62 63.2086 76.41 63.5378 76.1775 63.9195C75.42 65.1916 73.71 67.646 73.59 67.646C73.515 67.646 70.2675 65.0569 68.865 63.8821L67.725 62.9317L68.22 62.2732C70.875 58.7637 72.795 54.3038 73.5375 49.8739C73.8375 48.1004 73.9125 47.1276 73.9125 45.0848C73.9125 42.6977 73.74 41.0664 73.2375 38.7991C72.495 35.4093 70.8525 31.6827 68.7975 28.7419C66.6 25.5991 63.5475 22.7031 60.345 20.7127C53.6175 16.5372 45.6825 15.295 37.995 17.2256C27.1575 19.9344 18.7125 28.9215 16.695 39.8841C16.335 41.8671 16.245 42.8548 16.245 44.9725C16.245 46.9705 16.29 47.5991 16.5825 49.38C17.2875 53.6603 19.335 58.5093 22.02 62.2508C22.62 63.0814 22.725 63.261 22.635 63.3508C22.4175 63.5678 16.9875 67.9453 16.935 67.9453C16.77 67.9453 14.955 65.4759 14.1975 64.2263C13.8225 63.6052 13.65 63.3807 13.5375 63.3807C13.455 63.3807 12.03 63.6201 10.38 63.912C8.72245 64.2113 7.31245 64.4283 7.24495 64.4059C7.10245 64.3535 6.51745 63.1412 5.79745 61.4351C5.24245 60.1031 4.39495 57.6562 4.45495 57.5514C4.47745 57.514 5.69995 56.7508 7.16245 55.8603C8.62495 54.9698 9.83995 54.214 9.85495 54.1916C9.86995 54.1616 9.76495 53.6304 9.62995 53.0167C9.16495 50.9365 8.90995 49.2004 8.80495 47.3596L8.75245 46.4093L6.75745 45.8331C5.66245 45.5113 4.27495 45.1072 3.67495 44.9351L2.58745 44.6133L2.59495 43.2814C2.60245 42.5406 2.66245 41.4331 2.73745 40.8195C2.87995 39.5174 3.20245 37.5569 3.28495 37.4746C3.31495 37.4446 4.70245 37.2501 6.37495 37.0406C8.04745 36.8385 9.49495 36.644 9.59245 36.6065C9.74995 36.5616 9.80245 36.4344 10.0275 35.5814C10.4025 34.1521 11.1075 32.1093 11.7 30.7324L12.225 29.5201L11.9025 29.1834C11.7225 28.9963 10.725 27.9712 9.68995 26.9086C8.64745 25.8385 7.79995 24.9181 7.79995 24.8582C7.79995 24.6787 8.71495 23.1222 9.56245 21.8501C10.23 20.8548 10.74 20.1664 11.79 18.8569L11.985 18.6099L14.79 19.927C16.3275 20.6528 17.6175 21.2514 17.655 21.2514C17.685 21.2514 17.8725 21.0793 18.06 20.8623C18.8025 20.0467 21.4875 17.5923 23.2275 16.1555L23.46 15.961L22.4925 13.0276C21.96 11.4113 21.525 10.0644 21.525 10.0344C21.525 9.96709 22.7925 9.16641 24.075 8.41063C25.3575 7.66233 27.99 6.3528 28.1625 6.37525C28.2525 6.39022 29.1525 7.34056 30.345 8.68002C31.47 9.93716 32.4375 10.9698 32.4975 10.9848C32.5575 10.9997 32.955 10.8875 33.3825 10.7378C35.04 10.1616 37.3425 9.6079 39.705 9.22627L40.0725 9.16641L40.9425 6.046L41.8125 2.92559L42.225 2.89566C43.2225 2.8358 46.935 2.86573 47.925 2.94056Z" fill="#004F9F"/>
<path d="M44.0099 12.2719C44.0249 12.7208 44.0249 13.095 44.0024 13.095C43.9799 13.095 43.7324 12.7433 43.4549 12.3093C42.9599 11.531 42.9524 11.5236 42.6599 11.5236H42.3674L42.4124 12.4739C42.4349 13.0052 42.4724 13.5739 42.4949 13.746C42.5324 14.0453 42.5474 14.0678 42.7649 14.0678H42.9899L42.9599 13.2446C42.9449 12.7882 42.9599 12.4215 42.9824 12.4215C43.0049 12.4215 43.2674 12.7882 43.5674 13.2297C44.0999 14.0378 44.0999 14.0378 44.3699 14.0079L44.6474 13.978L44.6024 13.4392C44.5724 13.1474 44.5349 12.5787 44.5049 12.1746L44.4524 11.4487H44.2124H43.9649L44.0099 12.2719Z" fill="#004F9F"/>
<path d="M46.1775 12.1746C46.1475 12.5787 46.125 13.1698 46.125 13.4841V14.0678H46.3875H46.65V13.5963C46.65 13.3419 46.6725 12.7508 46.7025 12.2868L46.7475 11.4487H46.485H46.2225L46.1775 12.1746Z" fill="#004F9F"/>
<path d="M47.3023 11.9651C47.2723 12.212 47.2273 12.7807 47.2048 13.2372L47.1523 14.0603L47.3548 14.1127C47.4673 14.1352 47.5723 14.1426 47.5873 14.1277C47.6098 14.1052 47.6548 13.7161 47.6923 13.2522C47.7298 12.7882 47.7748 12.3991 47.7898 12.3767C47.8048 12.3617 48.0148 12.7733 48.2623 13.2821L48.6973 14.2175H48.9748H49.2523L49.3048 13.4467C49.3273 13.0277 49.3723 12.459 49.4023 12.1746L49.4473 11.6733H49.1848H48.9148L48.8623 12.5488L48.8023 13.4318L48.3448 12.4964C47.8948 11.576 47.8798 11.561 47.6173 11.5386L47.3473 11.5161L47.3023 11.9651Z" fill="#004F9F"/>
<path d="M40.575 11.7257C40.395 11.7557 40.3725 11.823 40.08 13.0577C39.915 13.7761 39.7875 14.3747 39.795 14.3897C39.81 14.4047 39.9375 14.3972 40.08 14.3822C40.305 14.3598 40.3425 14.3223 40.3875 14.0904C40.44 13.806 40.455 13.7985 41.01 13.7387C41.4075 13.7013 41.4075 13.7013 41.52 13.9557C41.595 14.1428 41.6775 14.2176 41.7975 14.2176C42.225 14.2101 42.21 14.1428 41.5875 12.8781C41.1825 12.055 40.9575 11.6734 40.8825 11.6808C40.815 11.6883 40.68 11.7108 40.575 11.7257ZM40.995 12.8183C41.085 13.0278 41.145 13.2298 41.13 13.2598C41.0775 13.3421 40.575 13.3346 40.575 13.2598C40.575 13.0727 40.755 12.3468 40.7925 12.3842C40.815 12.4067 40.905 12.6013 40.995 12.8183Z" fill="#004F9F"/>
<path d="M50.2425 12.1145C50.07 12.2941 50.025 12.3989 50.025 12.6683C50.025 13.0649 50.1 13.1397 50.7975 13.4689C51.2025 13.671 51.3 13.7458 51.3 13.888C51.3 14.3145 50.4675 14.2771 50.3025 13.8431C50.25 13.6934 50.16 13.6186 50.0175 13.6036C49.77 13.5662 49.725 13.641 49.815 13.9703C49.9125 14.337 50.265 14.5465 50.85 14.5764C51.3 14.6064 51.3675 14.5914 51.585 14.4043C51.795 14.2322 51.825 14.1574 51.825 13.8431C51.825 13.4315 51.72 13.3193 51.0225 13.02C50.5275 12.8104 50.4375 12.7057 50.55 12.5036C50.7075 12.2043 51.315 12.3315 51.45 12.6907C51.5025 12.8254 51.5775 12.8703 51.7575 12.8703C51.9825 12.8703 51.99 12.8628 51.945 12.6308C51.855 12.1744 51.4275 11.8975 50.8125 11.8975C50.5275 11.8975 50.4225 11.9349 50.2425 12.1145Z" fill="#004F9F"/>
<path d="M38.6175 12.0325C38.5125 12.0774 38.52 12.2121 38.6925 13.2972C38.7975 13.9632 38.91 14.5244 38.9325 14.5543C38.9625 14.5768 39.0675 14.5768 39.18 14.5468C39.4275 14.487 39.4275 14.3223 39.2025 12.9829C39.0525 12.1298 39.015 12.0101 38.8875 11.9951C38.805 11.9876 38.685 12.0026 38.6175 12.0325Z" fill="#004F9F"/>
<path d="M52.4701 12.4661C52.4101 12.7056 52.4776 12.7655 52.8976 12.8328C53.1151 12.8702 53.1751 12.9151 53.1451 13.0049C53.1226 13.0798 53.0101 13.5437 52.8901 14.0525L52.6726 14.9655L52.9051 15.0328C53.0326 15.0627 53.1526 15.0852 53.1676 15.0702C53.1826 15.0553 53.3026 14.5988 53.4376 14.0525C53.5726 13.5063 53.7151 13.0573 53.7451 13.0573C53.7826 13.0573 53.9476 13.0872 54.1051 13.1172C54.3151 13.1621 54.4126 13.1546 54.4576 13.0798C54.6301 12.8179 54.5326 12.7505 53.6476 12.5335C53.1601 12.4213 52.7101 12.309 52.6426 12.294C52.5601 12.2716 52.5001 12.324 52.4701 12.4661Z" fill="#004F9F"/>
<path d="M36.4349 12.5115C36.0074 12.6238 35.8499 12.6986 35.8499 12.7884C35.8499 12.9231 36.4199 15.1081 36.4649 15.1605C36.4799 15.1755 36.7949 15.1081 37.1624 15.0109C37.7024 14.8687 37.8749 14.7864 38.0474 14.5918C38.2574 14.3598 38.2649 14.3224 38.2349 13.7387C38.2124 13.0353 38.0174 12.6612 37.5974 12.4592C37.3049 12.317 37.1549 12.3245 36.4349 12.5115ZM37.5524 13.1626C37.7399 13.4394 37.7924 14.0306 37.6499 14.2925C37.5824 14.4197 37.1624 14.5918 36.9299 14.5918C36.8474 14.5918 36.6074 13.8285 36.4799 13.1925C36.4424 12.9904 36.4574 12.953 36.6074 12.9231C36.7049 12.9007 36.9224 12.8932 37.0874 12.9007C37.3349 12.9081 37.4099 12.953 37.5524 13.1626Z" fill="#004F9F"/>
<path d="M34.7849 12.9975C34.7099 13.0124 34.6499 13.0424 34.6499 13.0499C34.6499 13.0573 34.7699 13.4165 34.9124 13.843C35.0549 14.2696 35.1599 14.6288 35.1449 14.6512C35.1224 14.6662 34.7849 14.3893 34.3949 14.0376C33.9974 13.6859 33.6674 13.3941 33.6524 13.3941C33.5024 13.3941 33.1499 13.5811 33.1724 13.6485C33.1874 13.6934 33.3599 14.2471 33.5624 14.8757C33.9224 15.9982 33.9374 16.0206 34.1249 15.9757C34.2299 15.9458 34.3349 15.9084 34.3649 15.8784C34.3874 15.8485 34.2974 15.4893 34.1549 15.0777C34.0199 14.6662 33.9149 14.2995 33.9224 14.2621C33.9374 14.2247 34.2749 14.4866 34.6724 14.8458C35.3624 15.4669 35.4149 15.5043 35.6624 15.4594C35.8049 15.4294 35.9249 15.3845 35.9249 15.3546C35.9249 15.3322 35.7449 14.7784 35.5349 14.1274C35.1374 12.9226 35.1224 12.9077 34.7849 12.9975Z" fill="#004F9F"/>
<path d="M54.7949 13.2973C54.7349 13.4993 54.5774 14.0381 54.4499 14.5095C54.2549 15.198 54.2324 15.3701 54.3149 15.4225C54.4799 15.5347 54.7349 15.4973 54.7799 15.3551C54.8549 15.0932 55.3349 13.3497 55.3724 13.1925C55.3949 13.0728 55.3649 13.0204 55.2449 12.9905C54.9599 12.9156 54.9149 12.9456 54.7949 13.2973Z" fill="#004F9F"/>
<path d="M55.7774 13.2971C55.7474 13.3196 55.7249 13.4168 55.7249 13.5141C55.7249 13.6413 55.7924 13.7012 56.0099 13.7685C56.1599 13.8209 56.3099 13.8808 56.3399 13.9107C56.3774 13.9406 56.2499 14.4046 56.0699 14.9434L55.7399 15.9311L55.9724 16.006C56.0999 16.0509 56.2274 16.0658 56.2574 16.0359C56.2799 15.9985 56.4449 15.5495 56.6174 15.0257L56.9324 14.0828L57.2699 14.1951C57.6224 14.3148 57.7199 14.2849 57.7649 14.0379C57.7874 13.9032 57.3824 13.7386 55.9424 13.2821C55.8824 13.2597 55.8074 13.2672 55.7774 13.2971Z" fill="#004F9F"/>
<path d="M32.2724 13.9181L32.0999 13.9854L32.3924 14.7936C32.9324 16.2752 32.9624 16.3501 33.1574 16.3276C33.4799 16.2902 33.4874 16.1929 33.1874 15.3997C33.0374 14.9732 32.8424 14.4494 32.7599 14.2324C32.6099 13.8358 32.5649 13.8058 32.2724 13.9181Z" fill="#004F9F"/>
<path d="M28.3499 14.0154C28.2524 14.0678 28.1249 14.1875 28.0799 14.2848C27.9074 14.6215 28.2299 15.1154 28.6199 15.1154C28.8749 15.1154 28.8899 15.0256 28.6499 14.8834C28.3724 14.7113 28.3424 14.412 28.5974 14.2848C28.8149 14.1651 28.8074 14.18 28.7549 14.0379C28.7024 13.8957 28.6049 13.8882 28.3499 14.0154Z" fill="#004F9F"/>
<path d="M57.9074 15.0634C57.4874 16.0062 57.4349 16.328 57.6824 16.6423C58.0274 17.0838 58.7999 17.2709 59.1674 17.009C59.3399 16.8892 60.1499 15.3103 60.1499 15.0933C60.1499 15.0035 59.7899 14.779 59.7299 14.8389C59.7149 14.8464 59.5199 15.2505 59.2949 15.7294C58.8599 16.6573 58.7399 16.777 58.3799 16.5974C57.9449 16.3879 57.9524 16.3131 58.5299 15.0035L58.7924 14.4049L58.6274 14.3151C58.5374 14.2627 58.4249 14.2253 58.3799 14.2178C58.3274 14.2178 58.1174 14.5994 57.9074 15.0634Z" fill="#004F9F"/>
<path d="M28.4625 15.3622C27.465 15.8785 25.71 17.001 24.975 17.5847C24.15 18.2506 23.115 19.0588 22.9125 19.2085L22.6875 19.3731L22.8375 19.5302L22.995 19.6799L23.25 19.4928C23.52 19.2983 23.625 19.3207 23.7825 19.6275C23.8425 19.7323 23.8275 19.7996 23.73 19.9119C23.64 20.0166 23.625 20.084 23.6775 20.1364C23.775 20.2336 24.7275 20.3983 24.8025 20.3309C24.8325 20.301 24.795 20.1738 24.7275 20.0615C24.66 19.9418 24.6 19.8296 24.6 19.8071C24.6 19.7847 24.735 19.6649 24.8925 19.5377L25.185 19.3058L25.4925 19.7323L25.7925 20.1588L25.5675 20.4058C25.305 20.7051 25.2975 20.7724 25.515 20.8248C25.635 20.8622 25.74 20.8173 25.8825 20.6826C26.0925 20.4806 26.325 20.503 26.325 20.72C26.325 20.8622 26.01 21.184 25.7475 21.3187C25.6575 21.3636 25.4325 21.401 25.245 21.401C24.9075 21.401 24.9 21.4085 24.9 21.633V21.8649L25.2975 21.8126C26.085 21.7153 26.925 21.1316 26.925 20.6826C26.925 20.4581 26.55 20.054 26.34 20.054C26.2575 20.054 26.175 19.9942 26.16 19.9194C26.1375 19.852 25.8825 19.4479 25.59 19.0364C25.29 18.6173 25.05 18.2432 25.05 18.2058C25.05 18.0411 26.475 16.986 26.6925 16.986C26.7525 16.986 27.225 17.6819 27.225 17.7717C27.225 17.7942 27.0675 17.8092 26.8725 17.8092L26.5125 17.8017L26.7225 17.6296C26.925 17.4724 26.925 17.4575 26.79 17.3377C26.67 17.2255 26.64 17.2255 26.4375 17.3602C25.965 17.6745 25.8375 18.0486 26.0625 18.4826C26.3175 18.9765 26.925 18.9915 27.435 18.5275L27.6075 18.3704L27.75 18.55C27.8775 18.7296 27.8925 18.7296 28.08 18.6098L28.2675 18.4826L27.6975 17.5772L27.12 16.6643L27.345 16.4847C27.7125 16.1853 28.86 15.6316 28.9125 15.7214C28.98 15.8187 28.995 15.8037 28.515 16.0432C27.87 16.3724 27.81 16.8887 28.4025 17.0534C28.8375 17.1806 28.98 17.1506 29.2875 16.9112C29.445 16.784 29.6175 16.6867 29.67 16.6867C29.8275 16.6867 29.7975 17.0908 29.6325 17.2928C29.5125 17.4425 29.415 17.4724 29.1 17.4724C28.7775 17.4724 28.6875 17.5023 28.5975 17.637C28.5 17.7867 28.5075 17.8092 28.665 17.9139C28.8075 18.0037 28.8975 18.0187 29.1075 17.9588C29.25 17.9139 29.5875 17.9064 29.88 17.9289C30.2775 17.9663 30.405 17.9588 30.4575 17.8765C30.6 17.652 30.5325 17.5847 30.1725 17.5847C29.8875 17.5772 29.8425 17.5622 29.9475 17.5023C30.135 17.3901 30.3225 16.9935 30.27 16.8064C30.2025 16.5296 29.925 16.2377 29.7375 16.2377C29.64 16.2377 29.4075 16.3649 29.22 16.5296C28.98 16.7391 28.8375 16.8139 28.725 16.784C28.4775 16.7166 28.575 16.5221 28.95 16.3126C29.6475 15.9309 29.6025 15.9833 29.46 15.6915C29.3325 15.4296 29.3325 15.4221 29.52 15.3098C29.7225 15.1677 29.7375 15.1228 29.61 14.9432C29.52 14.8309 29.415 14.8758 28.4625 15.3622ZM27.285 18.1983C27.2625 18.2506 27.165 18.3479 27.06 18.4078C26.9025 18.4901 26.8275 18.4976 26.67 18.4228C26.565 18.3779 26.475 18.2881 26.475 18.2207C26.475 18.1309 26.5725 18.1085 26.895 18.1085C27.195 18.1085 27.3075 18.1309 27.285 18.1983ZM24.9 18.9316C24.9 18.9615 24.765 19.1037 24.5925 19.2384L24.285 19.4779L24.105 19.2609C24.0075 19.1411 23.94 19.0214 23.9475 18.9915C23.955 18.9615 24.0975 18.8343 24.2625 18.7146L24.5625 18.4826L24.735 18.6772C24.825 18.7819 24.9 18.8942 24.9 18.9316Z" fill="#004F9F"/>
<path d="M60.6299 15.4673C60.4949 15.6768 60.5024 15.6768 60.9224 15.9088C61.0349 15.9687 61.1249 16.051 61.1249 16.0884C61.1249 16.1333 60.9074 16.5449 60.6374 17.0013C60.3674 17.4653 60.1499 17.8694 60.1499 17.8993C60.1499 17.9292 60.2474 18.0041 60.3599 18.0639L60.5774 18.1762L61.0949 17.2857C61.3799 16.7918 61.6349 16.3877 61.6724 16.3877C61.7024 16.3877 61.8599 16.47 62.0249 16.5748L62.3249 16.7619L62.4299 16.5524L62.5349 16.3428L61.6499 15.8115L60.7574 15.2803L60.6299 15.4673Z" fill="#004F9F"/>
<path d="M62.1976 17.6974L61.5076 18.7749L62.3401 19.2987C63.1051 19.7851 63.1801 19.815 63.2701 19.6953C63.4426 19.4783 63.3901 19.411 62.8501 19.0817C62.5576 18.9096 62.3026 18.73 62.2801 18.7001C62.2126 18.5878 62.5501 18.1014 62.6476 18.1613C62.7001 18.1837 62.9326 18.3409 63.1726 18.5055C63.5926 18.7824 63.6151 18.7899 63.7126 18.6552C63.8851 18.4382 63.8476 18.3783 63.3376 18.0491C63.0676 17.8769 62.8501 17.7123 62.8501 17.6824C62.8501 17.6525 62.9101 17.5477 62.9851 17.4504L63.1126 17.2858L63.5251 17.5327C63.7501 17.6674 64.0126 17.832 64.1026 17.8844C64.2526 17.9817 64.2826 17.9742 64.3801 17.847C64.4476 17.7647 64.5001 17.6749 64.5001 17.645C64.5001 17.6001 62.9851 16.6123 62.9176 16.6123C62.9026 16.6123 62.5801 17.0987 62.1976 17.6974Z" fill="#004F9F"/>
<path d="M23.865 17.3452C23.715 17.4575 23.7075 17.4949 23.7975 17.6146C23.895 17.7493 23.91 17.7493 24.0975 17.6221C24.2625 17.5173 24.285 17.465 24.2175 17.3527C24.1275 17.1806 24.0825 17.1806 23.865 17.3452Z" fill="#004F9F"/>
<path d="M65.565 19.2083C65.22 19.3805 64.8375 19.8519 64.725 20.2485C64.6425 20.5328 64.65 20.6226 64.755 20.9145C64.905 21.3036 65.325 21.6777 65.6775 21.7451C66.1275 21.8274 66.4575 21.7152 66.8325 21.341C67.425 20.7424 67.5 20.0913 67.0275 19.5526C66.6225 19.0961 66.0675 18.9614 65.565 19.2083ZM66.63 19.7995C66.96 20.1362 66.855 20.6526 66.375 21.0566C66.03 21.341 65.625 21.326 65.37 21.0192C65.1375 20.7424 65.13 20.5927 65.325 20.1961C65.6175 19.6274 66.255 19.4328 66.63 19.7995Z" fill="#004F9F"/>
<path d="M20.985 21.0416C20.0175 21.9919 17.85 24.596 17.85 24.813C17.85 24.8654 17.9175 24.9477 17.9925 24.9926C18.1125 25.0524 18.1725 25.03 18.33 24.828L18.5175 24.5885L18.8775 24.8953C19.2 25.1722 19.2375 25.232 19.2225 25.4865C19.2 25.7708 18.9525 26.332 18.795 26.4293C18.75 26.4592 18.6525 26.4892 18.5775 26.4892C18.45 26.4892 18.45 26.4742 18.555 26.3246C18.84 25.9205 18.6 25.3667 18.0825 25.2096C17.6025 25.0674 17.13 25.3742 16.995 25.913C16.965 26.0327 16.6725 26.5341 16.3425 27.028C16.005 27.5218 15.705 28.0232 15.675 28.1354C15.645 28.2477 15.54 28.4647 15.4425 28.6293C15.3375 28.7865 15.0075 29.4225 14.7 30.0286C14.2425 30.949 14.16 31.1511 14.25 31.2035C14.46 31.3382 14.5425 31.2783 14.82 30.7545C14.97 30.4626 15.135 30.2307 15.18 30.2307C15.3375 30.2307 15.7575 30.5375 15.7275 30.6273C15.7125 30.6722 15.5775 30.747 15.4275 30.7769C15.1425 30.8443 15.0825 30.979 15.2175 31.196C15.2775 31.2858 15.375 31.2858 15.8775 31.2109C17.145 31.0089 17.175 30.9939 17.175 30.7171V30.4701L16.7175 30.5749C16.4625 30.6348 16.245 30.6722 16.2375 30.6647C16.2225 30.6497 16.1925 30.53 16.1625 30.3953C16.1325 30.2382 16.14 30.1558 16.2 30.1558C16.245 30.1558 16.35 30.0361 16.4325 29.8939L16.59 29.632L17.07 29.9014C17.34 30.0511 17.565 30.1633 17.58 30.1484C17.595 30.1334 17.6475 30.0361 17.7 29.9388C17.805 29.7293 17.895 29.8116 16.785 29.1756C16.335 28.9286 15.975 28.6967 15.975 28.6667C15.975 28.4946 16.185 28.0456 16.44 27.664L16.7325 27.2375L16.9575 27.3647C17.43 27.6416 17.4225 27.8361 16.9425 27.8361C16.6425 27.8361 16.6125 27.8735 16.695 28.1729C16.7325 28.3225 16.7775 28.33 17.685 28.3001C18.2775 28.2776 18.66 28.2327 18.69 28.1803C18.72 28.1354 18.75 28.0007 18.75 27.8885C18.75 27.7239 18.72 27.6865 18.6225 27.7164C18.5475 27.7314 18.3075 27.7763 18.0975 27.7987L17.7 27.8511V27.6341C17.7 27.3722 18.075 27.013 18.36 27.013C18.465 27.013 18.6975 26.9456 18.87 26.8633C19.11 26.7436 19.23 26.6164 19.38 26.3171C19.485 26.1001 19.59 25.8307 19.6125 25.7184L19.6575 25.5089L19.8825 25.696C20.16 25.928 20.19 25.9354 20.37 25.7334C20.4975 25.5987 20.4975 25.5688 20.4 25.4939C19.9725 25.1722 18.825 24.2218 18.825 24.1919C18.825 24.1769 18.93 24.0273 19.0575 23.8701L19.2975 23.5783L19.6425 23.8851C21.0375 25.1123 20.91 25.03 21.075 24.8803C21.1575 24.8055 21.225 24.7157 21.225 24.6858C21.225 24.6558 20.8725 24.3191 20.4375 23.945C20.0025 23.5633 19.65 23.2341 19.65 23.2041C19.65 23.1817 19.995 22.7776 20.415 22.3137L21.1725 21.4681L21.3675 21.6552L21.555 21.8422L21.015 22.4035C20.715 22.7028 20.475 22.9946 20.475 23.032C20.475 23.2416 20.73 23.3613 21.09 23.3314C21.585 23.279 21.675 23.1742 21.45 22.9348L21.27 22.7402L21.5475 22.4633L21.825 22.1865L22.26 22.6205L22.695 23.047L22.8525 22.8824L23.0175 22.7103L22.275 21.9246L21.54 21.1388L21.6975 20.9667L21.855 20.8021L21.6975 20.645L21.5475 20.4878L20.985 21.0416ZM18.06 25.7109C18.2925 25.8681 18.2775 26.4892 18.0375 26.4892C17.9925 26.4892 17.8875 26.6239 17.8125 26.7885C17.7375 26.9606 17.6475 27.1103 17.61 27.1327C17.5425 27.1776 17.025 26.8858 17.025 26.8035C17.0325 26.6388 17.19 26.5266 17.385 26.549C17.535 26.564 17.6775 26.5116 17.8125 26.3919C18.075 26.1674 18.0075 26.0327 17.6625 26.0926C17.4225 26.13 17.4 26.1225 17.4 25.9429C17.4 25.6211 17.7525 25.4939 18.06 25.7109ZM16.0125 29.3028C16.23 29.445 16.2375 29.4599 16.0875 29.8116L15.975 30.081L15.675 29.9314C15.51 29.849 15.375 29.7667 15.375 29.7443C15.375 29.7293 15.435 29.5946 15.5025 29.445C15.645 29.1531 15.7425 29.1232 16.0125 29.3028Z" fill="#004F9F"/>
<path d="M67.3126 21.6329L66.4351 22.5458L66.6301 22.7404L66.8251 22.9275L67.2226 22.5384L67.6126 22.1492L68.0101 22.5384L68.4001 22.935L68.5651 22.7628L68.7301 22.5982L68.3251 22.1867L67.9201 21.7751L68.1151 21.5731L68.3101 21.3785L68.7601 21.805C69.0001 22.037 69.2326 22.2241 69.2701 22.2241C69.3076 22.2241 69.3826 22.1492 69.4426 22.0594C69.5326 21.9098 69.5026 21.8649 68.9176 21.3186C68.5726 20.9969 68.2651 20.735 68.2426 20.7275C68.2126 20.7275 67.8001 21.139 67.3126 21.6329Z" fill="#004F9F"/>
<path d="M70.0274 22.8752C69.9224 23.0024 69.9299 23.0324 70.1324 23.2718C70.2524 23.414 70.3499 23.5487 70.3499 23.5786C70.3499 23.6235 69.4124 24.4392 68.8349 24.9181C68.8049 24.9405 68.8574 25.0528 68.9474 25.1725L69.1199 25.382L69.9374 24.6936L70.7624 24.0052L71.0024 24.297C71.2049 24.5364 71.2649 24.5664 71.3774 24.499C71.4524 24.4541 71.5124 24.3643 71.5124 24.297C71.5124 24.1623 70.3499 22.7555 70.2299 22.7555C70.1849 22.748 70.0949 22.8079 70.0274 22.8752Z" fill="#004F9F"/>
<path d="M70.98 25.4493C70.4475 25.8234 69.9825 26.1602 69.945 26.1901C69.87 26.2649 70.92 27.7615 71.055 27.7615C71.115 27.7615 71.1975 27.7091 71.25 27.6493C71.3325 27.552 71.325 27.4921 71.205 27.3275C70.515 26.3846 70.5375 26.4221 70.695 26.3023C71.07 26.003 71.0775 26.0105 71.445 26.5044C71.6325 26.7663 71.7975 26.9834 71.8125 26.9984C71.85 27.0433 72.15 26.8336 72.15 26.7663C72.15 26.7289 72 26.4895 71.8125 26.2351C71.4975 25.7936 71.4825 25.7561 71.61 25.6513C71.88 25.4193 71.91 25.4344 72.315 25.9956L72.72 26.5493L72.8925 26.4146L73.0725 26.2799L72.57 25.569C72.3 25.1724 72.045 24.8357 72.0075 24.8132C71.97 24.7908 71.505 25.0751 70.98 25.4493Z" fill="#004F9F"/>
<path d="M72.735 27.2377C72.165 27.4098 71.6625 27.8962 71.58 28.3302C71.4375 29.1084 72.1875 29.8642 72.9375 29.6771C73.125 29.6322 73.125 29.6248 73.0125 29.4078C72.9225 29.2282 72.8475 29.1833 72.645 29.1833C72.135 29.1833 71.895 28.5771 72.255 28.188C72.5325 27.8887 73.02 27.6717 73.29 27.7241C73.5525 27.7839 73.83 28.1731 73.755 28.3976C73.65 28.7418 73.6575 28.854 73.7625 28.9962C73.875 29.1384 73.875 29.1384 74.0325 28.9812C74.4 28.6146 74.2425 27.754 73.74 27.3948C73.485 27.2152 73.02 27.1404 72.735 27.2377Z" fill="#004F9F"/>
<path d="M14.6399 28.1731C14.5649 28.3302 14.5724 28.3676 14.6999 28.435C14.8124 28.4948 14.8649 28.4799 14.9549 28.3452C15.0374 28.2255 15.0524 28.1581 14.9849 28.0833C14.8649 27.9336 14.7299 27.9636 14.6399 28.1731Z" fill="#004F9F"/>
<path d="M73.7624 29.8341C73.1474 30.1409 72.63 30.4102 72.615 30.4177C72.6 30.4327 72.645 30.5449 72.7125 30.6722L72.8324 30.9041L73.35 30.6422L73.875 30.3803L74.1 30.8218L74.3249 31.2708L73.8075 31.5551L73.29 31.832L73.3949 32.0415C73.4549 32.1538 73.5374 32.2511 73.5749 32.2511C73.6424 32.2511 75.7425 31.2334 75.81 31.166C75.825 31.1511 75.78 31.0388 75.72 30.9116C75.5925 30.6647 75.5325 30.6647 75.1125 30.9191C74.9925 30.9939 74.8425 31.0538 74.7975 31.0538C74.7075 31.0538 74.3249 30.3878 74.3249 30.2307C74.3249 30.1858 74.5125 30.066 74.7375 29.9613L75.15 29.7742L75.03 29.5347C74.9625 29.4 74.9024 29.2878 74.8949 29.2878C74.8949 29.2803 74.3849 29.5273 73.7624 29.8341Z" fill="#004F9F"/>
<path d="M74.8649 32.3336C73.8149 32.7526 73.7249 32.805 73.7699 32.9472C73.7924 33.037 73.8449 33.1417 73.8749 33.1792C73.9124 33.2091 74.2874 33.1043 74.7074 32.9397C75.1349 32.7751 75.4949 32.6479 75.5099 32.6628C75.5249 32.6778 75.2624 33.0295 74.9324 33.4485C74.3099 34.2193 74.2499 34.3615 74.4224 34.6009C74.5199 34.7281 74.5874 34.7132 75.7049 34.2717C76.7849 33.8451 76.8749 33.7928 76.8299 33.6506C76.7324 33.3213 76.7774 33.3213 75.5774 33.7778L75.0599 33.9723L75.2174 33.7703C75.2999 33.6506 75.5849 33.2914 75.8474 32.9621C76.3124 32.386 76.3274 32.3635 76.2374 32.1465C76.1849 32.0193 76.1099 31.907 76.0724 31.8996C76.0424 31.8921 75.4949 32.0866 74.8649 32.3336Z" fill="#004F9F"/>
<path d="M13.5224 32.9172C13.4249 33.0818 13.3199 33.1342 12.9599 33.2016C11.9024 33.4036 11.3024 34.1744 11.6624 34.8628C11.7824 35.0948 11.9099 35.1696 12.2099 35.1696C12.4574 35.1696 12.5474 35.1097 12.6674 34.8927C12.7949 34.6458 12.7724 34.6233 12.4949 34.6757C12.0524 34.758 11.8649 34.354 12.1724 33.9798C12.3599 33.7553 13.1999 33.4859 13.1999 33.6431C13.1999 33.673 13.0799 34.0472 12.9374 34.4887C12.7949 34.9227 12.6299 35.4914 12.5624 35.7458C12.5024 36.0077 12.3974 36.4118 12.3374 36.6438C12.2774 36.8832 12.2099 37.205 12.1874 37.3621C12.1499 37.5941 12.0224 37.7662 11.5199 38.2601C11.1749 38.5968 10.7999 39.0383 10.6874 39.2404C10.2074 40.0635 10.5974 41.0512 11.3474 40.9016C11.5499 40.8642 11.5499 40.8642 11.5499 41.2982V41.7322L10.9349 42.1138C10.5899 42.3308 10.2674 42.5329 10.2149 42.5628C10.1249 42.6227 10.1324 42.675 10.2299 42.8696C10.2974 42.9968 10.3724 43.1016 10.3949 43.1016C10.4174 43.1016 10.6724 42.8771 10.9574 42.6002L11.4824 42.0989L11.4299 43.9696C11.3999 45.3764 11.4149 46.222 11.5124 47.4043C11.7074 49.8961 11.6999 49.8662 11.9474 49.8961C12.1199 49.9186 12.1499 49.8961 12.1499 49.739C12.1499 49.5744 12.1874 49.5519 12.5849 49.5145C13.0349 49.4696 13.2749 49.29 13.2749 49.0057C13.2749 48.7737 13.3874 48.841 13.6949 49.2376C13.8524 49.4397 14.0024 49.6118 14.0324 49.6118C14.0624 49.6118 14.1299 49.537 14.1974 49.4397C14.3024 49.2825 14.2874 49.2526 13.8224 48.7288L13.3349 48.19H13.7549C14.1674 48.19 14.1749 48.19 14.1749 47.9655V47.7485L13.0724 47.7261L11.9624 47.7036L11.9399 47.3968L11.9174 47.09L12.4949 47.0451C12.8099 47.0152 13.3049 46.9927 13.5899 46.9927H14.0999V46.7682V46.5438H13.0199H11.9399L11.8724 46.222C11.7749 45.7281 11.8349 44.8227 11.9699 44.8227C12.0599 44.8227 12.0674 44.8975 12.0299 45.1893C11.9699 45.6608 12.0749 45.8703 12.3824 45.8703C12.5249 45.8703 12.6674 45.8029 12.7874 45.6757C12.9374 45.5186 12.9824 45.5036 13.1099 45.5784C13.4399 45.7805 13.9499 45.3689 13.9499 44.89C13.9499 44.7104 13.8224 44.224 13.6874 43.9023C13.6424 43.7975 13.6724 43.775 13.8674 43.775C14.0774 43.775 14.0999 43.7526 14.0999 43.5506C14.0999 43.4233 14.0924 43.3261 14.0849 43.3186C14.0699 43.3186 13.5899 43.2737 13.0124 43.2288L11.9624 43.139L11.9399 42.7424C11.9099 42.2859 11.8349 42.3084 12.9749 42.4655C14.0999 42.6227 14.0999 42.6227 14.0999 42.3608C14.0999 42.1063 14.1224 42.1138 12.9224 41.9716C12.5024 41.9193 12.1199 41.8594 12.0824 41.8295C11.9999 41.7846 11.9324 41.0438 11.9999 40.9839C12.0224 40.9614 12.5024 41.0363 13.0724 41.141C13.9649 41.3131 14.1224 41.3206 14.1749 41.2308C14.3549 40.954 14.2649 40.8791 13.5974 40.7519C13.2299 40.6846 12.7574 40.5873 12.5324 40.5499L12.1274 40.4676L12.1649 39.9138C12.1874 39.607 12.2174 39.3451 12.2324 39.3301C12.2474 39.3077 12.3824 39.3227 12.5249 39.3526C12.7499 39.3975 12.7874 39.4349 12.8099 39.6444C12.8249 39.7791 12.8474 39.8839 12.8699 39.8839C12.9674 39.8839 13.4849 39.5771 13.6424 39.4274C13.7999 39.2778 13.8074 39.2553 13.6949 39.173C13.6349 39.1206 13.3049 39.0233 12.9749 38.956L12.3674 38.8213L12.4199 38.5519C12.4499 38.3948 12.4799 38.2601 12.4949 38.2451C12.5099 38.2301 12.9599 38.3274 13.4924 38.4621C14.0249 38.5893 14.4974 38.6791 14.5349 38.6567C14.5724 38.6342 14.6249 38.5295 14.6399 38.4322C14.6774 38.2526 14.6474 38.2451 13.6574 37.9982C12.4499 37.6989 12.4949 37.7587 12.7949 36.6812C13.0499 35.7608 13.0424 35.7682 13.2749 35.858C13.4549 35.9329 13.4624 35.9329 13.3049 35.9927C13.0274 36.105 12.9674 36.7635 13.1999 37.0628C13.4099 37.3247 13.7924 37.3921 14.0924 37.2199C14.3174 37.0853 14.5499 36.7186 14.5499 36.5016C14.5499 36.3295 14.6249 36.2995 14.8349 36.3744C14.9924 36.4342 15.0524 36.4267 15.1274 36.3145C15.3074 36.0825 15.2024 35.9778 14.5574 35.7608C14.2049 35.641 13.8899 35.5138 13.8524 35.4764C13.7474 35.3716 13.9649 34.9825 14.1449 34.9601C14.2949 34.9376 14.6399 35.2519 14.7149 35.4839C14.7599 35.6111 15.1499 35.439 15.1499 35.2968C15.1499 35.0948 14.8049 34.6832 14.5274 34.5485C14.2949 34.4288 14.2124 34.4213 13.9874 34.4961C13.7174 34.5859 13.4999 34.8778 13.4999 35.1621C13.4999 35.3417 13.4174 35.4091 13.2899 35.3267C13.2149 35.2818 13.2149 35.1921 13.2674 34.9376C13.4099 34.3091 13.6274 33.7852 13.7324 33.8077C13.7924 33.8227 14.2199 33.9798 14.6849 34.1594C15.1424 34.3465 15.5774 34.4961 15.6299 34.4961C15.7649 34.4961 15.8699 34.2118 15.7724 34.1145C15.7349 34.0771 15.2999 33.8825 14.8124 33.688L13.9124 33.3213L13.9349 33.0594C13.9499 32.8424 13.9274 32.7825 13.7924 32.7526C13.6799 32.7227 13.6049 32.7601 13.5224 32.9172ZM14.0849 36.1648C14.2124 36.2696 14.1374 36.5914 13.9424 36.756C13.6574 36.9955 13.4399 36.7335 13.5374 36.2397C13.5824 36.0002 13.6049 35.9853 13.7849 36.0301C13.8974 36.0601 14.0324 36.1199 14.0849 36.1648ZM11.8199 39.2703C11.7524 39.5172 11.6999 39.8689 11.6999 40.056C11.6999 40.3927 11.6174 40.475 11.2724 40.4825C11.0999 40.4825 10.8749 40.1907 10.8749 39.9737C10.8749 39.6744 11.1824 39.0757 11.5574 38.6567L11.8874 38.2825L11.9099 38.5519C11.9249 38.7016 11.8799 39.0233 11.8199 39.2703ZM12.7349 43.6703L13.1924 43.7227L13.3499 44.0893C13.5374 44.5233 13.5224 44.9574 13.3274 45.0771C13.1474 45.1893 12.9749 44.9648 12.9749 44.6131C12.9749 44.4186 12.9449 44.3662 12.8474 44.3887C12.7424 44.4036 12.7049 44.5009 12.6899 44.7478C12.6449 45.5934 12.4499 45.6832 12.4499 44.8601V44.2989H12.1949C11.8799 44.2989 11.8574 44.2689 11.9024 43.9023C11.9474 43.588 11.9474 43.588 12.7349 43.6703ZM12.8549 48.3097C12.9974 48.4519 13.0124 48.8186 12.8849 48.9159C12.8324 48.9608 12.6299 49.0131 12.4349 49.0281L12.0749 49.073V48.6315V48.19H12.4049C12.6074 48.19 12.7874 48.2349 12.8549 48.3097Z" fill="#004F9F"/>
<path d="M76.0725 34.6538C74.91 34.8708 74.49 35.9333 75.2325 36.7789C75.645 37.2503 76.395 37.2804 77.04 36.8538C77.4375 36.5919 77.5725 36.2925 77.535 35.7537C77.475 34.9231 76.9125 34.4967 76.0725 34.6538ZM76.935 35.3722C77.13 35.5817 77.1525 35.9559 76.9875 36.1878C76.7025 36.5994 75.8325 36.7341 75.5325 36.4123C75.21 36.0681 75.33 35.5443 75.7875 35.2974C76.23 35.0654 76.6725 35.0878 76.935 35.3722Z" fill="#004F9F"/>
<path d="M77.7 37.3995C77.415 37.4369 75.5175 37.9159 75.48 37.9608C75.4575 37.9757 75.54 38.3723 75.6525 38.8437C75.855 39.6669 75.87 39.6968 76.05 39.6744C76.155 39.6594 76.2525 39.6295 76.2675 39.6145C76.2825 39.5995 76.2375 39.3152 76.17 38.9784C76.095 38.6492 76.05 38.3648 76.065 38.3574C76.0725 38.3424 76.5375 38.2227 77.0775 38.088C78.075 37.8485 78.075 37.8485 78.03 37.6465C77.97 37.392 77.925 37.3621 77.7 37.3995Z" fill="#004F9F"/>
<path d="M76.6498 39.974C76.2223 40.1985 76.0273 40.5202 76.0273 41.044C76.0273 41.7325 76.4248 42.1964 77.0773 42.2563C77.8573 42.3311 78.5398 41.9345 78.6823 41.3209C78.8098 40.7597 78.5473 40.1685 78.0748 39.9216C77.7448 39.7495 77.0398 39.7794 76.6498 39.974ZM78.0373 40.5202C78.1723 40.6474 78.2248 40.7821 78.2248 40.9917C78.2248 41.3508 78.0298 41.5678 77.6098 41.6876C76.9723 41.8522 76.4998 41.5828 76.4998 41.044C76.4998 40.5726 76.8223 40.3481 77.4973 40.3406C77.7823 40.3332 77.8948 40.3706 78.0373 40.5202Z" fill="#004F9F"/>
<path d="M77.2199 42.7351C76.5974 42.8848 76.2749 43.2889 76.2749 43.9175C76.2749 44.2093 76.3199 44.3365 76.4699 44.5161C76.6349 44.7107 76.6424 44.7556 76.5449 44.793C76.4774 44.8154 76.4249 44.9277 76.4249 45.0249C76.4249 45.212 76.4399 45.212 76.7699 45.1671C76.9649 45.1447 77.2649 45.1222 77.4449 45.1222H77.7749V44.6807C77.7749 44.1195 77.7299 43.9998 77.5049 43.9998C77.3474 43.9998 77.3249 44.0297 77.3249 44.2991C77.3249 44.6583 77.1899 44.6957 76.9124 44.4113C76.7099 44.2168 76.6649 43.8726 76.7999 43.6181C76.9199 43.4011 77.2799 43.2515 77.6999 43.2515C78.0299 43.2515 78.1199 43.2889 78.3074 43.4685C78.5924 43.7528 78.5999 44.0971 78.3299 44.3814C78.1724 44.546 78.1424 44.6283 78.1874 44.8154C78.2324 45.0474 78.2399 45.0474 78.4574 44.9277C79.1849 44.5535 79.1324 43.2515 78.3749 42.8698C78.0374 42.6977 77.5874 42.6454 77.2199 42.7351Z" fill="#004F9F"/>
<path d="M78.0751 45.9829C77.3551 46.357 77.2426 46.387 76.7776 46.3944H76.2676L76.2901 46.6339L76.3126 46.8808L76.8376 46.9182C77.3026 46.9557 77.4376 47.008 78.0901 47.3897C78.4876 47.6216 78.8326 47.8162 78.8551 47.8162C78.8851 47.8162 78.9001 47.689 78.9001 47.5319C78.9001 47.255 78.8851 47.24 78.3751 46.9931C78.0901 46.8509 77.8501 46.7162 77.8501 46.6938C77.8501 46.6638 78.0901 46.5366 78.3751 46.4094L78.9001 46.1774V45.8781C78.9001 45.706 78.8926 45.5713 78.8851 45.5713C78.8701 45.5713 78.5101 45.7584 78.0751 45.9829Z" fill="#004F9F"/>
<path d="M10.7399 46.8958C10.1249 47.3298 10.0724 47.3972 10.1924 47.5843C10.2374 47.6591 10.2899 47.6591 10.3949 47.6067C10.6349 47.472 11.4224 46.6414 11.3849 46.5441C11.3699 46.4917 11.1074 46.6414 10.7399 46.8958Z" fill="#004F9F"/>
<path d="M10.89 47.5916C10.68 47.861 10.5 48.093 10.5 48.1229C10.5 48.1454 10.5675 48.2277 10.6425 48.295C10.785 48.4222 10.8 48.4148 11.0625 47.8909C11.4525 47.1202 11.3775 46.993 10.89 47.5916Z" fill="#004F9F"/>
<path d="M76.0949 49.1477C76.0724 49.1851 76.0349 49.5668 76.0049 49.9933C75.9524 50.7566 75.9599 50.779 76.1474 51.0035C76.4099 51.3103 76.7474 51.3777 77.0699 51.1906C77.3099 51.0484 77.3174 51.0484 77.4449 51.1906C77.6249 51.3851 78.0149 51.3777 78.2624 51.1606C78.4499 50.996 78.5249 50.7416 78.6299 49.7838L78.6824 49.3947L78.4349 49.3572C78.1874 49.3123 76.2749 49.0879 76.1849 49.0879C76.1549 49.0879 76.1174 49.1178 76.0949 49.1477ZM77.1149 50.0906C77.0849 50.562 76.9874 50.7341 76.7774 50.7341C76.5224 50.7341 76.4249 50.5919 76.4249 50.2402C76.4249 49.7389 76.4774 49.679 76.8299 49.7015L77.1374 49.7239L77.1149 50.0906ZM77.9924 49.8137C78.1574 49.8586 78.1649 49.8885 78.1274 50.2328C78.0749 50.6593 77.9624 50.8239 77.7449 50.794C77.6099 50.7715 77.5874 50.7117 77.5649 50.3674C77.5274 49.7613 77.5799 49.7015 77.9924 49.8137Z" fill="#004F9F"/>
<path d="M12.1725 51.5427C12.075 51.6026 12.27 52.7026 12.645 54.1693L12.825 54.8727L12.5175 55.172C12.105 55.591 11.925 55.9652 11.925 56.4142C11.925 57.1699 12.63 57.5965 13.095 57.125C13.23 56.9903 13.275 56.8856 13.245 56.7733C13.2225 56.6835 13.2 56.5638 13.2 56.5039C13.2 56.4291 13.1325 56.4591 12.99 56.5937C12.8775 56.706 12.72 56.7958 12.6525 56.7958C12.45 56.7958 12.2775 56.4591 12.33 56.1747C12.375 55.9352 12.7725 55.374 12.9075 55.374C12.99 55.374 13.1775 55.7931 13.3575 56.4142C13.4325 56.6761 13.545 56.9679 13.6125 57.0727C13.68 57.1699 13.845 57.5591 13.98 57.9407C14.31 58.8536 14.9025 60.1556 15.6525 61.6223C16.41 63.1114 16.425 63.1264 16.635 63.0142C16.77 62.9393 16.785 62.8944 16.725 62.7822C16.605 62.5577 16.635 62.4978 16.95 62.3332L17.25 62.1835L17.4 62.423C17.5875 62.7298 17.5875 62.8346 17.4075 62.8944C17.325 62.9169 17.175 63.0067 17.07 63.089C16.8225 63.2835 16.815 63.5754 17.0475 63.9121C17.19 64.1216 17.265 64.1665 17.4675 64.1516C17.7825 64.1366 17.82 64.0992 17.715 63.8672C17.655 63.74 17.565 63.6801 17.43 63.6801C17.1825 63.6801 17.2275 63.538 17.5425 63.3509C17.7825 63.2162 17.7825 63.2162 17.955 63.3733C18.045 63.4556 18.165 63.5305 18.21 63.5305C18.4275 63.5305 18.6075 62.7897 18.48 62.4529C18.4425 62.3482 18.405 62.3482 18.195 62.438C17.955 62.5352 17.94 62.5352 17.82 62.3332C17.7525 62.2135 17.7 62.0863 17.7 62.0414C17.7 61.9965 17.8875 61.8693 18.1125 61.757C18.4575 61.5849 18.5175 61.525 18.48 61.3978C18.39 61.0985 18.3075 61.106 17.4 61.5699C16.905 61.8244 16.47 62.0339 16.4325 62.0339C16.365 62.0339 15.945 61.3679 15.99 61.3305C15.9975 61.3155 16.455 61.1135 17.0025 60.874L17.9925 60.4475L17.8875 60.2305L17.775 60.021L17.2275 60.2529C16.935 60.3801 16.5075 60.5597 16.2825 60.657C16.065 60.7543 15.855 60.8366 15.825 60.8366C15.7125 60.8366 15 59.4073 15 59.1829C15 59.1529 15.1275 59.0856 15.2775 59.0482C15.72 58.921 15.8775 59.1754 15.6375 59.6318C15.54 59.8339 15.54 59.8563 15.7125 60.0135C15.8175 60.1108 15.915 60.1781 15.93 60.1556C15.945 60.1407 16.2 59.6992 16.5 59.1679C17.0325 58.24 17.04 58.2101 16.9125 58.0679C16.8375 57.9856 16.7475 57.9182 16.71 57.9182C16.68 57.9182 16.5375 58.1352 16.41 58.4046L16.17 58.8835L16.035 58.6665C15.8775 58.4046 15.6225 58.3747 15.1425 58.5693C14.835 58.689 14.82 58.689 14.7 58.5393C14.6325 58.4495 14.43 57.9706 14.25 57.4693C13.9875 56.721 13.95 56.5414 14.0325 56.489C14.2425 56.3543 14.3175 56.4366 14.5125 57.0203C14.73 57.6638 14.8875 57.8434 15.255 57.8434C15.405 57.8434 15.5475 57.7611 15.7125 57.5815C16.11 57.1699 16.3275 56.4216 16.0575 56.4216C16.02 56.4216 15.8925 56.5937 15.7725 56.8108C15.525 57.2672 15.36 57.3944 15.1725 57.2747C15.0225 57.1774 14.7375 56.474 14.7975 56.3318C14.8125 56.2795 15.075 56.1672 15.3675 56.0849C15.81 55.9652 15.9 55.9128 15.9 55.7856C15.9 55.4563 15.825 55.4488 14.7825 55.7556C14.235 55.9128 13.755 56.0325 13.725 56.0101C13.6425 55.9577 13.4775 55.4488 13.5225 55.4039C13.545 55.3815 13.995 55.2318 14.5275 55.0747C15.465 54.7978 15.4875 54.7903 15.4725 54.5883C15.465 54.4761 15.4425 54.3713 15.4275 54.3488C15.3975 54.3264 13.965 54.7155 13.44 54.8876C13.3275 54.925 13.17 54.5883 13.05 54.0645C12.9525 53.6454 13.035 53.5033 13.365 53.5033C13.5525 53.5033 13.605 53.5482 13.7025 53.8026L13.8225 54.0944L14.0475 53.9672C14.3475 53.7951 14.625 53.3686 14.625 53.0917C14.6175 52.8971 14.5425 52.6278 14.37 52.2162C14.325 52.1189 14.3625 52.089 14.565 52.0665C14.79 52.0441 14.8125 52.0291 14.79 51.8196C14.775 51.6924 14.7525 51.5876 14.745 51.5801C14.7375 51.5727 14.265 51.6475 13.6875 51.7522C12.6 51.9468 12.5325 51.9393 12.525 51.6101C12.525 51.4754 12.3375 51.438 12.1725 51.5427ZM13.9875 52.4182C14.1225 52.5454 14.175 52.6801 14.175 52.8897C14.175 53.0468 14.1525 53.1965 14.13 53.2264C14.1 53.2488 13.9575 53.189 13.8075 53.0917C13.5 52.8747 13.2675 52.8597 13.02 53.0169C12.8475 53.1291 12.84 53.1291 12.78 52.8522C12.75 52.6951 12.72 52.538 12.72 52.4931C12.7125 52.4257 13.3425 52.2611 13.6725 52.2386C13.7475 52.2386 13.89 52.3135 13.9875 52.4182Z" fill="#004F9F"/>
<path d="M76.17 51.8569C75.69 52.0066 75.375 52.493 75.375 53.0991C75.375 53.7801 75.8775 54.229 76.725 54.3039C77.3925 54.3637 77.835 54.0569 78.0075 53.4284C78.24 52.5678 77.745 51.9542 76.725 51.827C76.5375 51.8045 76.29 51.8195 76.17 51.8569ZM77.1525 52.493C77.4825 52.6277 77.655 52.912 77.595 53.2338C77.4975 53.7277 76.9875 53.9222 76.3875 53.6903C75.9975 53.5481 75.825 53.3386 75.825 53.0168C75.825 52.4182 76.395 52.1937 77.1525 52.493Z" fill="#004F9F"/>
<path d="M74.9325 54.6254C74.8725 54.7975 74.88 54.8648 74.9475 54.8873C75 54.9097 75.4275 55.0594 75.9 55.2165C76.3725 55.3812 76.71 55.5159 76.65 55.5159C76.5825 55.5233 76.125 55.471 75.6375 55.4111C75.1425 55.3512 74.73 55.2988 74.7225 55.2988C74.7225 55.2988 74.6775 55.4111 74.6325 55.5383C74.5275 55.8301 74.4975 55.7927 75.51 56.3988C75.8925 56.6308 76.1925 56.8254 76.1775 56.8403C76.1625 56.8553 75.7575 56.7356 75.27 56.571L74.3925 56.2791L74.325 56.4662C74.28 56.571 74.25 56.6832 74.25 56.7131C74.25 56.7655 76.4625 57.5437 76.62 57.5437C76.695 57.5437 76.875 57.0798 76.875 56.8852C76.875 56.8403 76.5525 56.6084 76.1625 56.3764C75.765 56.1444 75.4275 55.9199 75.405 55.8825C75.375 55.8376 75.72 55.8227 76.3125 55.8376L77.265 55.8601L77.3625 55.5383L77.46 55.2165L77.205 55.1118C76.9575 55.007 75.1125 54.4009 75.045 54.4009C75.03 54.4009 74.9775 54.5057 74.9325 54.6254Z" fill="#004F9F"/>
<path d="M73.7549 57.8281C73.3874 58.5989 73.3424 59.0179 73.5974 59.3098C73.7549 59.4894 73.8449 59.5268 74.1524 59.5343C74.4449 59.5343 74.5574 59.5792 74.7149 59.7363C74.9324 59.9533 75.2624 60.0057 75.5324 59.8635C75.6824 59.7812 76.3724 58.4792 76.3349 58.3594C76.3124 58.2996 74.7149 57.5213 74.1974 57.3118C74.0399 57.2519 74.0024 57.2968 73.7549 57.8281ZM74.6099 58.0526L74.8499 58.1873L74.6474 58.5914C74.4824 58.9207 74.3999 59.0104 74.2349 59.0254C74.0774 59.0479 74.0099 59.0104 73.9424 58.8683C73.8749 58.7261 73.8899 58.6139 74.0249 58.2996C74.1149 58.09 74.2349 57.9179 74.2799 57.9179C74.3249 57.9254 74.4749 57.9853 74.6099 58.0526ZM75.7049 58.5839C75.7274 58.6139 75.6599 58.8159 75.5624 59.0329C75.4124 59.3472 75.3449 59.422 75.2174 59.3996C74.9324 59.3621 74.8949 59.1826 75.0749 58.7635C75.2324 58.3894 75.2399 58.3819 75.4574 58.4567C75.5774 58.4941 75.6899 58.554 75.7049 58.5839Z" fill="#004F9F"/>
<path d="M72.8849 59.5793C72.7649 59.8412 72.7649 59.8487 72.9599 60.0358L73.1549 60.2378L72.9524 60.6569C72.7424 61.0759 72.7424 61.0759 72.4574 61.0385C72.1874 61.0086 72.1574 61.0236 72.0524 61.2555L71.9324 61.5025L72.1724 61.5474C72.6899 61.6297 74.2199 61.8093 74.4374 61.8093C74.6174 61.8093 74.6999 61.7644 74.7599 61.6222C74.8124 61.5174 74.8499 61.3827 74.8499 61.3304C74.8499 61.278 74.4374 60.7991 73.9274 60.2753L73.0124 59.3174L72.8849 59.5793ZM73.8749 60.9562L74.2124 61.3004L73.8374 61.2555C73.1849 61.1657 73.1849 61.1657 73.3274 60.8664C73.3949 60.7317 73.4699 60.612 73.4999 60.612C73.5224 60.612 73.6949 60.7691 73.8749 60.9562Z" fill="#004F9F"/>
<path d="M71.3548 62.2208C71.2123 62.4378 71.2048 62.4303 71.6773 62.7371C71.9623 62.9242 72.1123 63.1112 72.4498 63.6949C72.6748 64.0915 72.8849 64.4432 72.9074 64.4657C72.9374 64.4881 73.0274 64.4133 73.1174 64.2861L73.2749 64.0616L72.9749 63.5976C72.8099 63.3432 72.6748 63.1112 72.6748 63.0813C72.6748 63.0589 72.8699 63.0589 73.1099 63.0888C73.8299 63.1786 73.8449 63.1786 74.0174 62.8942L74.1673 62.6323L74.0023 62.6249C73.9123 62.6249 73.4924 62.5949 73.0799 62.565C72.4049 62.5201 72.2774 62.4827 71.9474 62.2732C71.7449 62.1385 71.5498 62.0337 71.5273 62.0337C71.4973 62.0337 71.4223 62.116 71.3548 62.2208Z" fill="#004F9F"/>
<path d="M44.8424 21.9399C44.4524 22.4263 43.8449 23.3616 43.4624 24.0501C43.1999 24.5215 43.1699 24.5514 43.0724 24.4242C42.3674 23.444 41.0174 22.748 39.5999 22.6283C38.9174 22.5684 38.9249 22.5535 39.0824 23.2644C39.1649 23.646 39.1274 24.1099 38.9099 25.6215L38.8274 26.2127L38.6324 25.9882C38.2424 25.5317 37.4249 25.0603 36.7199 24.8732C36.2849 24.7535 35.0399 24.7385 34.8749 24.8433C34.7774 24.9031 34.7999 25.0079 35.0099 25.6065C35.2649 26.3399 35.4749 27.2977 35.4749 27.7392V28.0011L35.1974 27.7467C34.5374 27.1555 33.7649 26.8637 32.8649 26.8637C32.2574 26.8637 31.6574 27.0133 31.4924 27.2079C31.4249 27.2977 31.4699 27.395 31.7774 27.7467C31.9799 27.9787 32.2199 28.278 32.3099 28.4127C32.5049 28.6895 32.9474 29.7147 32.8949 29.7671C32.8724 29.7821 32.7524 29.7671 32.6249 29.7222C31.8899 29.4603 30.7799 29.565 30.1874 29.9392C29.9099 30.1188 29.3999 30.7399 29.3999 30.9045C29.3999 30.927 29.6249 31.0916 29.8949 31.2712C30.4949 31.6678 30.9449 32.244 31.4099 33.2242C32.3999 35.327 32.7074 35.9031 33.0299 36.2698C33.4574 36.7412 34.1399 37.2052 34.6649 37.3848C34.8824 37.4521 35.0774 37.5195 35.0924 37.5344C35.1074 37.5494 34.9124 37.7814 34.6649 38.0508C34.2074 38.5372 33.7349 39.1807 33.4949 39.6521C33.2849 40.0487 32.7749 40.5576 32.3849 40.7521C32.0849 40.9018 32.0249 40.9691 32.0249 41.1412C32.0249 41.5154 32.7599 42.4657 33.4724 42.997C33.9824 43.3787 34.7249 43.7753 35.4749 44.0521C36.5324 44.4562 38.0924 44.3589 39.7799 43.7753C40.2674 43.6106 40.7174 43.4909 40.7849 43.5133C40.8599 43.5358 41.0774 43.7154 41.2799 43.9249C41.6999 44.3514 42.5399 44.8079 43.3349 45.0474C43.6349 45.1372 43.8749 45.2569 43.8749 45.3093C43.8749 45.3616 43.8224 45.5263 43.7624 45.6759C43.6949 45.8256 43.5599 46.312 43.4474 46.7535C43.2749 47.4419 43.2449 47.7188 43.2449 48.7514C43.2374 49.4099 43.2674 50.1807 43.2974 50.4576L43.3649 50.9664L42.9599 50.9065C42.1649 50.7868 40.8149 50.8542 39.8999 51.0562C38.5499 51.3555 37.7324 51.4378 36.1349 51.4378L34.6499 51.4304L31.9724 54.7977C30.4949 56.6535 29.2799 58.195 29.2649 58.2249C29.2499 58.2548 29.4074 58.5317 29.6099 58.831C30.4499 60.0732 30.5624 60.5821 30.1499 61.2331C30.0299 61.4276 29.9549 61.5848 29.9849 61.5923C30.0149 61.5923 32.7974 61.5923 36.1724 61.5848L42.2999 61.5773L42.7574 61.8766C44.0324 62.7297 45.7874 62.6773 46.9949 61.7644L47.2274 61.5848H53.5574H59.8799L59.5349 61.2256C59.0774 60.7542 58.9949 60.5821 59.0024 60.0433C59.0024 59.7065 59.0774 59.4222 59.2874 58.8984C59.5124 58.3372 59.5499 58.165 59.4899 58.0378C59.4449 57.9555 58.5674 56.4814 57.5474 54.7753L55.6799 51.6698L54.7499 51.6923C53.6249 51.7222 53.1524 51.6399 51.4874 51.1086C50.0174 50.6446 49.2524 50.5399 48.1199 50.6596C47.6849 50.7045 47.0399 50.8242 46.6874 50.9215C46.3349 51.0263 46.0349 51.1086 46.0124 51.1086C45.7874 51.1086 45.6749 48.5719 45.8549 47.5467C45.9824 46.8059 46.3874 45.5113 46.5224 45.3766C46.5749 45.3317 46.8674 45.2419 47.1749 45.1671C47.9474 44.995 48.7199 44.5685 49.0424 44.1344L49.2974 43.7902L49.5449 44.0372C49.9499 44.4487 51.2399 44.8304 52.5374 44.9426C53.6624 45.0324 54.9824 44.748 55.8974 44.2093C56.8349 43.663 57.7874 42.7202 58.1699 41.9644C58.3274 41.665 58.4024 41.3807 58.3274 41.3807C57.9899 41.3807 56.9849 41.1861 56.7824 41.0814C56.3774 40.8793 55.9349 40.378 55.3274 39.4725C54.8324 38.7242 54.4424 38.3127 53.8574 37.9385C53.6849 37.8188 53.6849 37.8188 54.2099 37.6093C55.4624 37.1229 56.3399 36.2623 57.3299 34.5637C58.5674 32.4385 59.2424 31.6004 60.0224 31.2188C60.2174 31.1215 60.3749 31.0018 60.3749 30.9494C60.3749 30.7848 60.0524 30.4929 59.6624 30.3059C59.3399 30.1487 59.1599 30.1188 58.3874 30.0963C57.5774 30.0664 57.4199 30.0889 56.9249 30.2535C56.6174 30.3582 56.3549 30.4331 56.3399 30.4181C56.3324 30.4106 56.4224 30.1338 56.5499 29.8195C56.7824 29.2358 57.0974 28.7195 57.5399 28.1957C57.7724 27.9188 57.7724 27.9113 57.6374 27.7616C57.4574 27.5596 56.8499 27.3875 56.3324 27.3875C55.8899 27.3875 54.8624 27.6045 54.4049 27.7991C54.2474 27.8589 54.1124 27.9038 54.0974 27.8814C54.0449 27.8365 54.3599 26.4072 54.5249 25.9358C54.7199 25.3596 54.7199 25.3222 54.4424 25.2249C53.7374 24.978 52.3349 25.3072 51.4124 25.9358L51.1274 26.1229L51.1724 25.5018C51.2024 25.1576 51.3074 24.544 51.4199 24.1324C51.7199 23.0099 51.7499 23.0923 50.9999 23.0623C49.8149 23.0174 48.9224 23.3542 47.8799 24.2372L47.2724 24.7535L47.0399 24.2746C46.5899 23.3691 45.3749 21.5508 45.2099 21.5508C45.1799 21.5508 45.0149 21.7304 44.8424 21.9399ZM45.8699 23.9229C46.4849 24.7684 47.1299 26.4222 47.4899 28.0535C47.6249 28.6521 47.6549 29.0263 47.6549 30.3059C47.6624 32.0045 47.5799 32.6106 47.1599 33.8453C46.7399 35.1174 46.3349 35.6936 45.6374 36.0378C45.2249 36.2324 45.2174 36.2324 44.8799 36.1052C44.3249 35.8957 43.7099 35.2671 43.3649 34.5487C42.4124 32.6031 42.2624 30.1637 42.9374 27.597C43.3124 26.1378 44.1149 24.4093 44.7899 23.5712L45.1649 23.1147L45.3524 23.2868C45.4574 23.3841 45.6899 23.6684 45.8699 23.9229ZM40.7699 23.7882C41.3999 24.0875 42.0599 24.746 42.3674 25.3821L42.6074 25.8834L42.2999 26.8637C41.3099 30.0889 41.4374 32.9623 42.6599 34.9753C42.8024 35.2222 43.0274 35.529 43.1474 35.6712C43.4099 35.9705 43.3274 35.9929 42.6224 35.7759C41.2724 35.3644 40.1699 34.1072 39.5549 32.2814C39.1349 31.0392 39.1574 29.8868 39.6449 26.9161C39.7874 26.048 39.9449 24.9331 39.9899 24.4467C40.0949 23.4365 40.0724 23.4589 40.7699 23.7882ZM50.4374 24.0725C50.1374 24.8508 50.0774 26.3324 50.2049 29.7072C50.2574 31.1814 50.2499 31.5855 50.1449 32.1766C49.8224 34.1147 49.0424 35.3719 47.6924 36.0977C47.3474 36.2923 47.3174 36.2923 47.1074 36.18L46.8749 36.0678L47.1524 35.7086C47.6924 35.0052 48.2474 33.5685 48.4649 32.2963C48.5174 32.0045 48.5549 31.1739 48.5549 30.4555C48.5474 28.9739 48.4349 28.1657 48.0299 26.7664C47.8874 26.28 47.7749 25.8385 47.7749 25.7861C47.7749 25.629 48.2774 25.0977 48.7724 24.7236C49.5749 24.1174 50.5724 23.7283 50.4374 24.0725ZM37.0724 25.8834C37.4999 26.0929 38.0099 26.5419 38.3624 27.0133L38.6399 27.3875L38.5124 28.3079C38.3624 29.3705 38.3399 31.0167 38.4674 31.7501C38.6024 32.5508 38.8949 33.3664 39.2699 34.0099C39.7199 34.7732 40.6499 35.7086 41.3999 36.1501L41.9624 36.4793L41.6399 36.5018C41.1749 36.5392 40.0949 36.2474 39.4949 35.9331C38.3999 35.3644 37.3199 33.9725 36.8324 32.4984C36.5249 31.578 36.3749 30.4705 36.2924 28.4725C36.2549 27.5222 36.1949 26.6018 36.1574 26.4147C36.1124 26.2276 36.0824 25.9807 36.0749 25.861C36.0749 25.6514 36.0824 25.6514 36.4049 25.6814C36.5849 25.7038 36.8849 25.7936 37.0724 25.8834ZM53.3774 26.6542C53.3024 27.627 52.8749 30.8372 52.7174 31.6079C52.2374 33.965 51.2624 35.4916 49.7774 36.2099C49.3049 36.4419 48.6749 36.5916 48.6749 36.4719C48.6824 36.4344 48.8324 36.2848 49.0199 36.1426C49.6799 35.6338 50.4149 34.4739 50.7749 33.3739C51.1049 32.3562 51.1874 31.6453 51.1724 29.8344C51.1724 28.8916 51.1424 27.9787 51.1199 27.7991C51.0749 27.5072 51.0899 27.4474 51.2924 27.2154C51.6149 26.8562 52.2374 26.4446 52.7249 26.265C53.4149 26.0181 53.4299 26.0256 53.3774 26.6542ZM34.1099 27.9263C34.6199 28.1657 35.3474 28.8242 35.4749 29.146C35.5124 29.2508 35.5499 29.5501 35.5499 29.797C35.5499 30.463 35.7599 31.7351 35.9774 32.431C36.3749 33.6957 37.2674 35.1324 38.1224 35.8807C38.3399 36.0678 38.7599 36.3821 39.0674 36.5766L39.6224 36.9283L39.3299 36.9508C38.9399 36.9882 38.1899 36.7861 37.4999 36.4569C37.0424 36.2474 36.8024 36.0603 36.2249 35.4766C35.1674 34.414 34.8899 33.8304 33.9674 30.695C33.5324 29.1984 33.3824 28.8167 32.9624 28.0984C32.8499 27.9188 32.7824 27.7317 32.8124 27.6868C32.8949 27.5521 33.5999 27.6868 34.1099 27.9263ZM56.3999 28.2555C56.3999 28.278 56.2349 28.6372 56.0249 29.0562C55.7774 29.5576 55.5074 30.3059 55.2449 31.2412C55.0199 32.0195 54.7424 32.88 54.6374 33.1494C54.1649 34.3093 52.7924 35.9929 51.9899 36.397C51.5999 36.5916 50.7149 36.861 50.6549 36.7936C50.6324 36.7787 50.8124 36.614 51.0524 36.4344C51.9749 35.7236 52.9424 34.0623 53.3174 32.5508C53.4299 32.0793 53.6249 31.0991 53.7374 30.3807C53.8574 29.6623 53.9849 29.0263 54.0299 28.9739C54.1349 28.8317 54.7799 28.5099 55.2749 28.3528C55.6649 28.2256 56.3999 28.1582 56.3999 28.2555ZM32.5649 30.6725C33.1274 30.9419 33.3899 31.2562 33.5549 31.8474C34.1249 33.9052 34.5824 34.8555 35.3999 35.7161C35.7299 36.0603 36.1874 36.4793 36.4199 36.6365L36.8474 36.9283L36.4199 36.9508C35.1674 37.0181 33.9599 36.4045 33.2549 35.3419C33.0974 35.1025 32.7074 34.3242 32.3849 33.6133C31.6874 32.0494 31.5374 31.78 31.0049 31.1889C30.7799 30.9419 30.5999 30.7099 30.5999 30.68C30.5999 30.4106 32.0099 30.4106 32.5649 30.6725ZM58.5749 30.9569C58.5749 31.0242 58.4549 31.2038 58.0049 31.8474C57.8324 32.0943 57.3974 32.8426 57.0374 33.5236C55.9199 35.6338 55.4174 36.2099 54.1799 36.8236C53.4374 37.1902 53.3549 37.2127 52.6874 37.2501C52.2974 37.265 51.9749 37.265 51.9749 37.2501C51.9749 37.2276 52.1999 37.078 52.4699 36.9208C52.9799 36.6215 53.7749 35.8508 54.3974 35.0426C54.8399 34.4589 55.2749 33.6582 55.5449 32.8875C55.7174 32.4161 55.8449 32.2065 56.1374 31.9072C56.5724 31.4657 57.0824 31.1514 57.5849 31.0167C57.9749 30.9045 58.5749 30.8746 58.5749 30.9569ZM46.1999 37.1229C47.1824 37.3474 48.3374 38.2603 48.7799 39.1732C49.2224 40.0712 49.1174 41.029 48.5099 41.5678C48.0074 42.0242 47.6174 42.1664 46.8299 42.1664C46.2149 42.1664 46.1099 42.144 45.6674 41.9195L45.1874 41.6725L44.6999 41.8821C44.2724 42.0616 44.1149 42.0916 43.4249 42.0916C42.7049 42.0916 42.6074 42.0766 42.2924 41.8895C41.2349 41.2685 40.8899 40.1535 41.4449 39.1208C41.7524 38.5596 42.5849 37.7065 43.0724 37.4671C43.2899 37.3548 43.6874 37.2127 43.9574 37.1603C44.5274 37.0331 45.7274 37.0106 46.1999 37.1229ZM41.3999 37.7664C41.3999 37.7963 41.3174 37.9011 41.2199 38.0059C41.1224 38.1181 40.8449 38.5671 40.6049 39.0161C40.1099 39.9215 39.8924 40.1385 38.9999 40.6174C37.9499 41.1787 36.6824 41.4555 35.1299 41.4555C34.3949 41.4555 33.5174 41.3582 33.3524 41.2535C33.3224 41.2385 33.3899 41.0963 33.5099 40.9467C33.6299 40.797 33.9974 40.2582 34.3424 39.7569C35.2949 38.3426 35.7674 38.0133 37.1024 37.8263C37.8674 37.7215 41.3999 37.6766 41.3999 37.7664ZM49.9949 37.9385C50.3174 37.9834 51.0749 38.0433 51.6749 38.0807C52.3274 38.1256 52.9049 38.2004 53.1224 38.2753C53.6024 38.4474 54.0449 38.8889 54.8624 40.0338C55.6049 41.0664 56.0249 41.5004 56.5199 41.7623C56.6999 41.8596 56.8499 41.9644 56.8499 41.9943C56.8499 42.0991 56.0399 42.4358 55.5374 42.5406C54.1949 42.8249 52.4624 42.5705 50.9174 41.8521C50.2499 41.5453 50.1974 41.463 50.0999 40.6174C50.0024 39.8018 49.9124 39.5099 49.4924 38.6719C49.2899 38.2678 49.1249 37.9236 49.1249 37.9011C49.1249 37.8487 49.3274 37.8562 49.9949 37.9385ZM40.3124 41.695C40.3649 42.2263 40.3574 42.2412 40.1474 42.4208L39.9374 42.6004L39.9149 41.9719C39.8999 41.448 39.9149 41.3283 40.0199 41.2535C40.0949 41.2011 40.1774 41.1562 40.2074 41.1562C40.2299 41.1562 40.2824 41.4031 40.3124 41.695ZM39.3749 42.1963C39.3749 42.8099 39.3599 42.8773 39.2099 42.9821C38.8874 43.214 38.8499 43.1542 38.8499 42.3909C38.8499 41.7174 38.8574 41.6725 39.0224 41.6052C39.3599 41.4705 39.3749 41.4929 39.3749 42.1963ZM38.3849 42.5406C38.3624 43.2814 38.3099 43.3936 38.0099 43.4011C37.8899 43.4011 37.8749 43.3188 37.8749 42.6603C37.8749 41.8821 37.8899 41.8446 38.2349 41.8372C38.4149 41.8297 38.4149 41.8372 38.3849 42.5406ZM37.3499 42.7202C37.3499 43.461 37.3499 43.461 37.1549 43.5059C37.0424 43.5358 36.9224 43.5283 36.8849 43.4909C36.8474 43.4535 36.8249 43.1242 36.8399 42.765C36.8624 42.0616 36.8774 42.0392 37.2974 41.9868C37.3274 41.9793 37.3499 42.3161 37.3499 42.7202ZM34.2599 42.2338C34.2749 42.2487 34.2749 42.3685 34.2599 42.4957L34.2374 42.7276L33.8999 42.4208L33.5624 42.1215L33.8999 42.1664C34.0799 42.1889 34.2449 42.2263 34.2599 42.2338ZM36.3599 42.8249L36.3824 43.4759H36.1124H35.8499V42.8474C35.8499 42.3086 35.8724 42.2113 35.9849 42.1814C36.3074 42.0916 36.3374 42.144 36.3599 42.8249ZM35.3249 42.7276C35.3249 43.012 35.3099 43.2514 35.2874 43.2514C35.2574 43.2514 35.1449 43.1991 35.0249 43.1392C34.8149 43.0344 34.7999 42.9895 34.7999 42.6154V42.2038H35.0624H35.3249V42.7276ZM48.8174 43.4086C48.7799 43.4759 48.6674 43.5882 48.5624 43.6555L48.3749 43.7753V43.1841C48.3749 42.6004 48.3824 42.5855 48.5849 42.5181C48.7874 42.4508 48.7874 42.4508 48.8324 42.8698C48.8549 43.1018 48.8474 43.3412 48.8174 43.4086ZM41.7824 42.578C41.8949 42.6453 41.9249 42.7426 41.9249 43.0419V43.431L41.6999 43.214C41.5349 43.0569 41.4749 42.9297 41.4749 42.7501C41.4749 42.4882 41.5424 42.4508 41.7824 42.578ZM50.4374 42.6304C50.6999 42.7576 50.6999 42.7576 50.6999 43.229C50.6999 43.4909 50.6774 43.7004 50.6549 43.7004C50.6249 43.7004 50.4899 43.6331 50.3549 43.5433C50.1149 43.3936 50.0999 43.3712 50.0999 42.9446C50.0999 42.7052 50.1149 42.5031 50.1374 42.5031C50.1524 42.5031 50.2874 42.563 50.4374 42.6304ZM45.3899 42.8548C45.5024 42.9596 45.5249 43.0943 45.5249 43.8276V44.6732H45.3074C44.8574 44.6732 44.8499 44.6508 44.8499 43.7902C44.8499 43.1616 44.8724 42.9746 44.9774 42.8623C45.1274 42.6977 45.2099 42.6902 45.3899 42.8548ZM47.7749 43.4685V44.2093L47.5424 44.2916C47.4074 44.3365 47.2874 44.3739 47.2799 44.3739C47.2649 44.3739 47.2499 44.0222 47.2499 43.5957C47.2499 42.765 47.2499 42.765 47.6474 42.7351C47.7599 42.7276 47.7749 42.8099 47.7749 43.4685ZM43.0349 43.4984L43.0574 44.1494L42.7874 44.0222L42.5249 43.895V43.3487V42.795L42.7724 42.8174L43.0124 42.8399L43.0349 43.4984ZM46.7249 43.6929C46.7249 44.4712 46.7174 44.5086 46.5599 44.5535C46.4624 44.5759 46.3124 44.5984 46.2224 44.5984C46.0574 44.5984 46.0499 44.5759 46.0499 43.88C46.0499 43.0195 46.1099 42.8773 46.4624 42.8773H46.7249V43.6929ZM44.2649 43.7378C44.2499 44.1494 44.2274 44.4936 44.2124 44.5086C44.2049 44.5236 44.0774 44.5011 43.9424 44.4637L43.6874 44.4038L43.6499 43.6705L43.6124 42.9446L43.9499 42.9671L44.2874 42.9895L44.2649 43.7378ZM51.5924 43.1093C51.8174 43.1916 51.8249 43.2065 51.8249 43.6406C51.8249 44.0521 51.8099 44.0821 51.6749 44.0446C51.5924 44.0222 51.4574 43.9773 51.3749 43.9548C51.2474 43.9174 51.2249 43.8501 51.2249 43.4685C51.2249 42.9895 51.2324 42.9821 51.5924 43.1093ZM55.9499 43.2514C55.8074 43.3712 55.5974 43.5208 55.4849 43.5882C55.2749 43.7079 55.2749 43.7079 55.2749 43.4909C55.2749 43.2889 55.3124 43.2664 55.6724 43.1616C56.2274 42.997 56.2424 43.0045 55.9499 43.2514ZM52.8599 43.7902C52.8824 44.1793 52.8674 44.2242 52.7324 44.2242C52.4099 44.2242 52.3499 44.1494 52.3499 43.7229V43.3188L52.5974 43.3412C52.8374 43.3637 52.8374 43.3712 52.8599 43.7902ZM54.7499 43.6555C54.7499 43.9474 54.7274 43.9848 54.5624 44.0147C54.3824 44.0521 54.3749 44.0372 54.3749 43.7304C54.3749 43.4236 54.4124 43.3787 54.6974 43.3338C54.7274 43.3338 54.7499 43.4759 54.7499 43.6555ZM53.8349 43.8276C53.8124 44.1569 53.7974 44.1868 53.6099 44.2093C53.4074 44.2317 53.3999 44.2242 53.3999 43.8576C53.3999 43.4834 53.4074 43.4759 53.6324 43.4759C53.8574 43.4759 53.8574 43.4834 53.8349 43.8276ZM45.5249 45.4814C45.5249 45.5113 45.4349 45.7957 45.3374 46.1174C44.8799 47.5317 44.7749 49.4623 45.0599 50.8691C45.2249 51.6923 45.1874 51.7521 44.6549 51.4977C44.2874 51.3181 44.2349 51.1909 44.0999 50.1358C43.9124 48.6242 44.0849 47.2174 44.6324 45.7582L44.7749 45.3841L45.1499 45.4065C45.3524 45.4215 45.5249 45.4589 45.5249 45.4814ZM50.9624 51.595C53.1524 52.2834 52.9874 52.2535 54.2099 52.2909L55.3499 52.3208L55.9799 53.3834C56.3249 53.9596 57.0674 55.2093 57.6299 56.1521L58.6499 57.8582L57.5474 57.8283C56.6774 57.7984 55.9574 57.7086 54.2249 57.4093C53.0099 57.1997 51.6299 56.9902 51.1574 56.9378C49.9649 56.8181 48.2849 56.8855 47.4749 57.095C46.8074 57.2671 45.8999 57.6487 45.5324 57.9106C45.4124 58.0004 45.2774 58.0678 45.2324 58.0678C45.1199 58.0678 45.1274 57.2821 45.2624 54.8127C45.3224 53.6977 45.3749 52.6501 45.3749 52.478C45.3749 52.1637 45.3824 52.1562 45.8099 51.9392C46.8449 51.4154 47.6399 51.2582 49.0124 51.2882C49.9874 51.3106 50.1299 51.3331 50.9624 51.595ZM42.7274 51.5202C43.2899 51.5725 43.9274 51.7821 44.3774 52.0589L44.7074 52.2685L44.6699 52.8297C44.6474 53.1365 44.5949 54.1841 44.5499 55.1494C44.4524 57.3344 44.3999 58.0079 44.3399 57.978C42.3974 56.9753 42.1424 56.9154 39.7874 56.9154C37.9649 56.9154 37.8599 56.9229 36.2249 57.1923C33.2024 57.7011 32.0999 57.8433 31.2149 57.8433H30.3674L30.8174 57.2596C31.0724 56.9453 32.1074 55.6358 33.1274 54.3637L34.9874 52.044L36.0374 52.0664C37.3274 52.0963 38.4749 51.9916 39.8999 51.7072C41.3774 51.4079 41.4899 51.4004 42.7274 51.5202ZM42.0374 57.6113C43.0124 57.8508 44.1149 58.3821 43.9574 58.5392C43.9049 58.5916 43.7024 58.5317 43.2974 58.3446C42.1874 57.8283 41.7224 57.746 39.8999 57.7385C38.3549 57.7385 38.1899 57.7535 35.9249 58.0827C33.0974 58.5093 32.2874 58.5916 31.1249 58.5916C30.4124 58.5916 30.2249 58.5691 30.1424 58.4719C30.0599 58.3671 30.0974 58.3596 30.5699 58.4045C31.2074 58.4719 32.5874 58.3521 34.1324 58.0977C38.3924 57.4093 38.5424 57.3943 40.1624 57.4317C41.1074 57.4542 41.5949 57.4991 42.0374 57.6113ZM50.7974 57.4691C51.3224 57.514 52.8524 57.731 54.2024 57.963C56.0099 58.2623 56.9474 58.3895 57.7274 58.4195C58.4024 58.4494 58.7774 58.4943 58.7474 58.5392C58.7174 58.5841 58.2824 58.5991 57.5699 58.5691C56.6924 58.5392 55.9274 58.4419 54.1499 58.1351C51.8924 57.746 51.8399 57.746 50.2874 57.7385C48.8849 57.7385 48.6449 57.761 48.1124 57.9031C47.4824 58.0753 46.5674 58.4793 46.1924 58.7487L45.9749 58.9059L45.8249 58.7263C45.7424 58.6365 45.6824 58.5317 45.6749 58.5093C45.6749 58.4045 46.8824 57.8433 47.4449 57.6861C48.4349 57.4168 49.3724 57.3569 50.7974 57.4691ZM41.0249 58.1426C42.0224 58.2698 43.0349 58.5841 43.4624 58.9133C43.7249 59.1154 43.5374 59.1229 43.1024 58.9283C41.5199 58.2324 39.6524 58.165 36.2249 58.6664C33.4499 59.078 32.9774 59.1304 31.7849 59.1378C30.9299 59.1528 30.5849 59.1304 30.5174 59.0555C30.4424 58.9807 30.6299 58.9657 31.4624 58.9657C32.6474 58.9657 33.7574 58.8535 36.2624 58.4719C39.0149 58.0603 39.8474 58.0004 41.0249 58.1426ZM51.2624 58.1426C51.7199 58.1875 52.9799 58.3671 54.0749 58.5542C55.1699 58.7338 56.5199 58.9358 57.0749 58.9957L58.0874 59.1079L57.1499 59.0705C56.6324 59.0555 55.6724 58.9582 55.0124 58.8535C52.7249 58.4868 52.3799 58.4419 51.4424 58.3671C49.8149 58.2324 48.3074 58.4793 47.0324 59.078C46.5074 59.3324 46.3049 59.3923 46.2674 59.3249C46.1699 59.1678 46.9274 58.7338 47.8124 58.4419C48.8474 58.0977 49.8524 58.0154 51.2624 58.1426ZM45.8174 60.0133C46.2149 60.7766 46.2824 61.1508 46.0499 61.3977C45.8174 61.6446 45.4649 61.7344 44.7524 61.7344C44.1449 61.7344 43.7624 61.6297 43.5749 61.4052C43.2674 61.0236 43.7249 59.8787 44.5724 58.9133L44.8124 58.644L45.1649 59.0406C45.3599 59.2576 45.6524 59.6991 45.8174 60.0133ZM41.0624 58.8161C41.9474 58.9433 43.2749 59.3399 43.2749 59.4821C43.2749 59.512 43.2299 59.5943 43.1774 59.6691C43.0874 59.7889 43.0349 59.7814 42.2849 59.5719C40.3274 59.0256 38.6999 58.9732 36.5249 59.3997C34.8149 59.7365 33.9074 59.8188 32.5124 59.7589C31.0124 59.6916 30.4349 59.5868 31.5374 59.5719C32.6249 59.5569 33.7799 59.4446 35.7749 59.1453C36.7424 59.0031 37.8074 58.861 38.1374 58.8236C38.9999 58.7338 40.4474 58.7338 41.0624 58.8161ZM54.0374 59.1229C55.4474 59.3474 56.3249 59.4446 57.2024 59.4821C58.2599 59.5195 58.4099 59.5419 58.3499 59.6392C58.2299 59.8338 56.8724 59.7739 55.2374 59.5045C53.1299 59.1603 52.2299 59.0929 50.5574 59.1378C48.9524 59.1827 48.3974 59.28 47.2499 59.7215C46.9124 59.8487 46.6199 59.9385 46.5974 59.9161C46.3799 59.6916 48.0674 59.0181 49.3199 58.8161C50.2199 58.6739 51.9524 58.7861 54.0374 59.1229ZM41.0849 59.7065C42.2849 59.961 42.8999 60.163 42.8999 60.3202C42.8999 60.4923 42.8999 60.4923 42.1349 60.3127C40.8224 60.0059 39.8699 59.9161 38.4374 59.961C37.6874 59.9834 36.6374 60.0732 36.0749 60.1555C34.6874 60.365 33.0974 60.4324 31.9874 60.3202C31.4924 60.2678 31.0574 60.2004 31.0274 60.163C30.9899 60.1331 31.7024 60.1256 32.6024 60.148C34.3499 60.1855 34.8599 60.1406 36.5999 59.8188C37.1549 59.7065 37.8299 59.5943 38.0999 59.5644C38.8124 59.4671 40.2824 59.5419 41.0849 59.7065ZM52.8599 59.6018C53.4674 59.6691 54.5024 59.8113 55.1624 59.9161C56.0249 60.0657 56.6399 60.1181 57.3524 60.1256C58.3949 60.1256 58.6499 60.2229 57.8924 60.3351C57.3824 60.4025 56.3399 60.3501 54.7874 60.163C52.7999 59.9236 51.2324 59.8487 50.1674 59.931C49.2074 60.0133 47.9474 60.2229 47.2949 60.4249C46.8374 60.5596 46.7999 60.5671 46.7999 60.4324C46.7999 60.3202 47.4524 60.0508 48.2249 59.8263C49.4249 59.4895 51.0224 59.4147 52.8599 59.6018ZM40.8899 60.4923C41.9549 60.6644 42.7499 60.8664 42.7499 60.9637C42.7499 61.0236 42.6974 61.0385 42.5849 60.9936C42.4949 60.9637 39.8624 60.9487 36.7349 60.9712L31.0499 61.0086V60.8065C31.0499 60.6494 31.0799 60.612 31.1849 60.6419C31.2524 60.6644 31.7774 60.7168 32.3399 60.7616C33.5024 60.844 34.7549 60.7766 36.4124 60.5446C36.9899 60.4623 37.6349 60.38 37.8374 60.3576C38.4599 60.3127 40.2299 60.3875 40.8899 60.4923ZM52.9199 60.3875C53.4524 60.4324 54.4349 60.5372 55.1024 60.6195C55.9724 60.7317 56.6324 60.7691 57.3749 60.7467C57.9524 60.7317 58.4249 60.7317 58.4249 60.7392C58.4249 60.7467 58.4474 60.7991 58.4699 60.8664C58.5149 60.9787 57.9824 60.9861 52.7924 60.9861C49.6424 60.9861 47.0999 60.9562 47.1449 60.9263C47.2874 60.7991 48.9299 60.4623 49.8749 60.365C50.4524 60.3052 52.0049 60.3202 52.9199 60.3875Z" fill="#004F9F"/>
<path d="M47.7749 52.2983C47.7749 52.5228 47.8799 52.6051 48.1874 52.6051C48.5024 52.6051 48.6674 52.4704 48.5549 52.2983C48.5024 52.2085 47.7749 52.2085 47.7749 52.2983Z" fill="#004F9F"/>
<path d="M46.9125 52.4109C46.7475 52.4632 46.5375 52.5456 46.44 52.5979C46.275 52.6877 46.2675 52.7027 46.3875 52.8299C46.5 52.9571 46.5225 52.9571 46.8975 52.8C47.295 52.6428 47.325 52.6129 47.325 52.4183C47.325 52.2837 47.31 52.2837 46.9125 52.4109Z" fill="#004F9F"/>
<path d="M49.065 52.4702C49.08 52.6049 49.1625 52.6498 49.5225 52.7172C49.9125 52.792 49.965 52.792 50.0325 52.6723C50.1375 52.4777 50.13 52.4777 49.725 52.3879C49.1475 52.2607 49.035 52.2757 49.065 52.4702Z" fill="#004F9F"/>
<path d="M50.4525 52.7545C50.4075 52.9341 50.4375 52.9565 50.8125 52.9864C51.0675 53.0164 51.1125 52.9939 51.135 52.8592C51.15 52.732 51.105 52.6871 50.9175 52.6497C50.5575 52.5824 50.4975 52.5898 50.4525 52.7545Z" fill="#004F9F"/>
<path d="M51.675 52.9717C51.675 53.1139 51.93 53.2037 52.3575 53.2037C52.5225 53.2037 52.5751 53.1663 52.5751 53.0615C52.5751 52.9044 52.38 52.8296 51.96 52.8296C51.7275 52.8296 51.675 52.8595 51.675 52.9717Z" fill="#004F9F"/>
<path d="M53.2276 53.0313C53.1976 53.0538 53.175 53.1436 53.175 53.2184C53.175 53.3307 53.2351 53.3531 53.5126 53.3531C53.8201 53.3531 53.85 53.3381 53.85 53.166C53.85 53.0014 53.82 52.979 53.565 52.979C53.4075 52.979 53.2501 53.0014 53.2276 53.0313Z" fill="#004F9F"/>
<path d="M47.2875 53.3088C46.545 53.5034 46.38 53.6156 46.5975 53.7877C46.665 53.8476 46.8225 53.8326 47.1675 53.7279C47.4225 53.6456 47.7375 53.5782 47.8575 53.5782C48.0375 53.5782 48.075 53.5483 48.075 53.3911C48.075 53.234 48.0375 53.2041 47.8725 53.2115C47.7525 53.2115 47.4975 53.2564 47.2875 53.3088Z" fill="#004F9F"/>
<path d="M48.675 53.3458C48.675 53.5254 48.7125 53.5479 49.2225 53.6152C49.5375 53.6601 49.5751 53.6452 49.5751 53.5105C49.5751 53.3234 49.5375 53.3009 49.065 53.2336C48.6975 53.1887 48.675 53.1962 48.675 53.3458Z" fill="#004F9F"/>
<path d="M50.0699 53.5483C50.0099 53.7129 50.1074 53.7728 50.5274 53.8401C50.8724 53.8925 50.9999 53.8551 50.9999 53.6905C50.9999 53.5483 50.9474 53.5259 50.5049 53.466C50.1824 53.4286 50.1149 53.4361 50.0699 53.5483Z" fill="#004F9F"/>
<path d="M51.5025 53.7953C51.45 54.0048 51.495 54.0272 52.0275 54.0272C52.44 54.0272 52.5 54.0123 52.5 53.8851C52.5 53.7803 52.425 53.7354 52.155 53.698C51.6225 53.6306 51.5475 53.6381 51.5025 53.7953Z" fill="#004F9F"/>
<path d="M53.1375 53.9374C53.0625 54.132 53.1 54.1544 53.4975 54.2068C53.7075 54.2367 54.03 54.2741 54.21 54.2966C54.495 54.3415 54.525 54.3265 54.525 54.1918C54.525 53.9823 54.4725 53.9598 53.7825 53.8925C53.3025 53.8476 53.175 53.8551 53.1375 53.9374Z" fill="#004F9F"/>
<path d="M48.2324 54.1692C48.1799 54.2066 48.1499 54.2964 48.1799 54.3712C48.2174 54.4909 48.2999 54.5134 48.6899 54.5134C49.0949 54.5134 49.1699 54.4909 49.2074 54.3637C49.2299 54.2814 49.2149 54.1916 49.1699 54.1617C49.0574 54.0794 48.3599 54.0868 48.2324 54.1692Z" fill="#004F9F"/>
<path d="M49.755 54.349C49.7325 54.4313 49.7475 54.5211 49.8 54.551C49.935 54.6333 50.4675 54.7082 50.5575 54.6633C50.655 54.5959 50.64 54.3265 50.535 54.3265C50.4825 54.3191 50.295 54.2891 50.1225 54.2592C49.8375 54.2068 49.8 54.2143 49.755 54.349Z" fill="#004F9F"/>
<path d="M47.1 54.4012C46.47 54.6481 46.665 54.9549 47.3175 54.7379C47.6775 54.6182 47.685 54.6107 47.61 54.4311C47.5125 54.2216 47.5425 54.2291 47.1 54.4012Z" fill="#004F9F"/>
<path d="M51.0525 54.6178C51 54.8198 51.0375 54.8348 51.555 54.8946C51.975 54.947 51.975 54.947 51.975 54.745C51.975 54.5953 51.9375 54.5504 51.81 54.5504C51.7125 54.5504 51.5175 54.528 51.3675 54.5055C51.135 54.4681 51.09 54.4831 51.0525 54.6178Z" fill="#004F9F"/>
<path d="M52.575 54.8651C52.575 55.0298 52.6124 55.0597 52.9199 55.1046C53.5049 55.1794 53.625 55.1645 53.625 55.0073C53.625 54.8128 53.5875 54.7978 53.04 54.7304C52.5825 54.6781 52.575 54.6856 52.575 54.8651Z" fill="#004F9F"/>
<path d="M54.195 54.9621C54.135 55.1716 54.2851 55.2315 54.8026 55.2016C55.3276 55.1791 55.395 55.1417 55.29 54.9546C55.2375 54.8573 55.11 54.8274 54.7275 54.8199C54.2925 54.8124 54.225 54.8274 54.195 54.9621Z" fill="#004F9F"/>
<path d="M48.4799 55.1939C48.5024 55.2613 48.5249 55.3436 48.5249 55.381C48.5249 55.4184 48.7049 55.4483 48.9299 55.4483C49.2974 55.4483 49.3349 55.4334 49.3649 55.2613C49.4024 55.0742 49.3949 55.0742 48.9224 55.0742C48.5099 55.0742 48.4424 55.0891 48.4799 55.1939Z" fill="#004F9F"/>
<path d="M49.9349 55.1943C49.7924 55.329 49.8824 55.5162 50.0999 55.5536C50.2274 55.576 50.4224 55.6135 50.5424 55.6434C50.7224 55.6733 50.7599 55.6509 50.7974 55.5087C50.8274 55.4189 50.8199 55.3141 50.7899 55.2842C50.7074 55.2094 49.9949 55.127 49.9349 55.1943Z" fill="#004F9F"/>
<path d="M47.1599 55.3813C46.8449 55.5384 46.8149 55.6058 46.9874 55.7479C47.0849 55.8303 47.1824 55.8228 47.5124 55.703C47.8499 55.5908 47.9249 55.5384 47.9249 55.3962C47.9249 55.2541 47.8874 55.2241 47.6849 55.2241C47.5499 55.2316 47.3099 55.299 47.1599 55.3813Z" fill="#004F9F"/>
<path d="M51.2999 55.4786C51.2999 55.5385 51.2849 55.6358 51.2624 55.6882C51.2324 55.7705 51.3524 55.8154 51.7649 55.8827C52.0574 55.9276 52.3349 55.9501 52.3649 55.9276C52.3949 55.9052 52.4249 55.8079 52.4249 55.7181C52.4249 55.5609 52.3799 55.5385 51.9974 55.4936C51.7574 55.4637 51.5024 55.4263 51.4349 55.4038C51.3449 55.3814 51.2999 55.4038 51.2999 55.4786Z" fill="#004F9F"/>
<path d="M52.9199 55.7932C52.8899 55.898 52.8824 56.0027 52.8974 56.0177C52.9124 56.0327 53.1824 56.0701 53.4974 56.0925L54.0749 56.1449V55.9578C54.0749 55.7783 54.0449 55.7633 53.6474 55.7184C53.4074 55.6885 53.1599 55.651 53.0924 55.6286C53.0024 55.6061 52.9499 55.6585 52.9199 55.7932Z" fill="#004F9F"/>
<path d="M54.5775 56.0096C54.5325 56.2565 54.57 56.2715 55.2 56.3238L55.725 56.3687V56.1742C55.725 55.9647 55.7325 55.9721 54.93 55.8674C54.645 55.83 54.615 55.8374 54.5775 56.0096Z" fill="#004F9F"/>
<path d="M41.4148 52.4704C41.4373 52.62 41.4823 52.6425 41.7748 52.6425C42.0673 52.6425 42.1123 52.62 42.1348 52.4704C42.1573 52.3207 42.1348 52.3057 41.7748 52.3057C41.4148 52.3057 41.3923 52.3207 41.4148 52.4704Z" fill="#004F9F"/>
<path d="M40.29 52.4779C39.9375 52.5453 39.9 52.5677 39.945 52.7099C39.975 52.7997 39.9975 52.8745 40.005 52.882C40.0125 52.897 40.215 52.8595 40.4475 52.8146C40.815 52.7323 40.875 52.7024 40.875 52.5527C40.875 52.3657 40.875 52.3657 40.29 52.4779Z" fill="#004F9F"/>
<path d="M42.5999 52.5979C42.5999 52.8 43.3724 53.1143 43.5374 52.9796C43.7099 52.8374 43.6799 52.785 43.2824 52.6129C42.8099 52.4109 42.5999 52.4109 42.5999 52.5979Z" fill="#004F9F"/>
<path d="M38.9474 52.7323C38.8349 52.7548 38.7749 52.8221 38.7749 52.9119C38.7749 53.0242 38.8274 53.0541 39.0599 53.0541C39.4049 53.0541 39.5474 52.9718 39.4799 52.8072C39.4349 52.6874 39.2924 52.665 38.9474 52.7323Z" fill="#004F9F"/>
<path d="M36.075 53.0166C36.075 53.1813 36.105 53.2037 36.375 53.2037C36.6225 53.2037 36.6749 53.1738 36.6749 53.0615C36.6749 52.9044 36.5325 52.8296 36.255 52.8296C36.1125 52.8296 36.075 52.867 36.075 53.0166Z" fill="#004F9F"/>
<path d="M37.5224 52.8821C37.4099 52.9046 37.3499 52.9719 37.3499 53.0617C37.3499 53.1889 37.4024 53.2039 37.7999 53.2039C38.2274 53.2039 38.2499 53.1964 38.2499 53.0168C38.2499 52.8522 38.2199 52.8298 37.9724 52.8372C37.8149 52.8447 37.6124 52.8672 37.5224 52.8821Z" fill="#004F9F"/>
<path d="M40.6724 53.3312C40.4174 53.3536 40.3499 53.391 40.3499 53.5033C40.3499 53.7053 40.4249 53.7278 40.8674 53.6754C41.2049 53.638 41.2499 53.6155 41.2499 53.4584C41.2499 53.3312 41.2124 53.2863 41.1224 53.2937C41.0474 53.3012 40.8449 53.3162 40.6724 53.3312Z" fill="#004F9F"/>
<path d="M41.7749 53.4882C41.7749 53.5929 41.8799 53.6378 42.2699 53.7127C42.5399 53.765 42.8699 53.8623 42.9974 53.9222C43.2074 54.0344 43.2299 54.0344 43.3274 53.9072C43.3799 53.8324 43.4249 53.7501 43.4249 53.7201C43.4249 53.6303 42.4499 53.3535 42.1124 53.3535C41.8424 53.3535 41.7749 53.3759 41.7749 53.4882Z" fill="#004F9F"/>
<path d="M39.1648 53.5554C38.9623 53.5853 38.9173 53.6153 38.9398 53.75C38.9623 53.8921 39.0073 53.9146 39.2623 53.8996C39.7723 53.8697 39.8923 53.8173 39.8473 53.6527C39.8098 53.503 39.7273 53.4881 39.1648 53.5554Z" fill="#004F9F"/>
<path d="M37.8975 53.7129C37.4475 53.7354 37.425 53.7429 37.425 53.9299C37.425 54.1245 37.4325 54.1245 37.8825 54.0796C38.3925 54.0347 38.4225 54.0197 38.385 53.8252C38.3625 53.7054 38.3025 53.6905 37.8975 53.7129Z" fill="#004F9F"/>
<path d="M35.325 53.9893V54.1764H36.075H36.825V53.9893V53.8022H36.075H35.325V53.9893Z" fill="#004F9F"/>
<path d="M40.6499 54.4386C40.6499 54.6331 40.6574 54.6331 41.1599 54.6107C41.6174 54.5882 41.6624 54.5732 41.6849 54.4161C41.7074 54.259 41.6849 54.2515 41.1824 54.2515C40.6649 54.2515 40.6499 54.259 40.6499 54.4386Z" fill="#004F9F"/>
<path d="M39.435 54.3787C39.225 54.4086 39.18 54.5059 39.285 54.678C39.33 54.7454 39.465 54.7603 39.735 54.7229C40.0875 54.6855 40.1325 54.6631 40.11 54.5209C40.0875 54.3563 39.8625 54.3114 39.435 54.3787Z" fill="#004F9F"/>
<path d="M42.2699 54.4535C42.1424 54.5882 42.2549 54.7528 42.5624 54.88C42.8924 55.0147 42.9149 55.0147 43.0574 54.88C43.2074 54.7453 43.2074 54.7453 42.9599 54.6181C42.6524 54.4685 42.3374 54.3861 42.2699 54.4535Z" fill="#004F9F"/>
<path d="M38.1225 54.6032C37.9125 54.6331 37.875 54.6631 37.875 54.8277C37.875 55.0148 37.8825 55.0148 38.31 54.9624C38.8275 54.895 38.8425 54.8876 38.7975 54.7005C38.76 54.5508 38.6775 54.5359 38.1225 54.6032Z" fill="#004F9F"/>
<path d="M36.6524 54.7528C36.2249 54.7828 36.2174 54.7903 36.2399 54.9848C36.2624 55.1719 36.2849 55.1869 36.5624 55.1644C37.1549 55.1195 37.2749 55.0746 37.2749 54.8801C37.2749 54.7753 37.2374 54.7079 37.1849 54.7154C37.1324 54.7229 36.8924 54.7379 36.6524 54.7528Z" fill="#004F9F"/>
<path d="M34.575 54.9625C34.575 55.1271 34.605 55.1496 34.8675 55.1496C35.025 55.1496 35.265 55.172 35.3925 55.1945C35.61 55.2394 35.625 55.2319 35.625 55.0074V54.7754H35.0999C34.5899 54.7754 34.575 54.7829 34.575 54.9625Z" fill="#004F9F"/>
<path d="M40.425 55.329C40.425 55.4936 40.4626 55.5086 40.8376 55.5385C41.0626 55.546 41.25 55.546 41.25 55.5235C41.25 55.5011 41.2725 55.4113 41.295 55.314C41.34 55.1569 41.325 55.1494 40.8825 55.1494C40.4475 55.1494 40.425 55.1569 40.425 55.329Z" fill="#004F9F"/>
<path d="M39.1725 55.2766C39.0525 55.299 39 55.3589 39 55.4861C39 55.7181 39.0375 55.7331 39.51 55.6507C39.855 55.5984 39.9 55.5684 39.9 55.4038C39.9 55.2467 39.87 55.2242 39.6225 55.2317C39.465 55.2392 39.2625 55.2616 39.1725 55.2766Z" fill="#004F9F"/>
<path d="M41.9024 55.3513C41.7449 55.5009 41.8724 55.6581 42.2774 55.8077C42.7049 55.9649 42.7124 55.9649 42.8549 55.8227C42.9974 55.6805 42.9974 55.6805 42.5924 55.486C42.1799 55.2989 41.9924 55.2615 41.9024 55.3513Z" fill="#004F9F"/>
<path d="M38.0249 55.4862C37.9649 55.5011 37.7849 55.5311 37.6349 55.561C37.3949 55.5984 37.3499 55.6358 37.3499 55.7855C37.3499 55.9426 37.3874 55.9726 37.5749 55.9726C37.6949 55.9726 37.9574 55.9351 38.1599 55.8902C38.4974 55.8229 38.5274 55.8004 38.4899 55.6283C38.4599 55.4562 38.3549 55.4188 38.0249 55.4862Z" fill="#004F9F"/>
<path d="M35.9474 55.7257C35.7449 55.7481 35.7 55.793 35.7 55.9427C35.7 56.1073 35.7299 56.1223 36.0224 56.1223C36.1949 56.1223 36.465 56.0998 36.6225 56.0699C36.855 56.0325 36.9074 56.0025 36.8849 55.8678C36.8624 55.7331 36.81 55.7107 36.525 55.7032C36.3375 55.6957 36.0749 55.7107 35.9474 55.7257Z" fill="#004F9F"/>
<path d="M33.825 55.9725V56.197H34.5449C35.1749 56.197 35.2575 56.182 35.22 56.0772C35.1975 56.0099 35.1749 55.9126 35.1749 55.8527C35.1749 55.7704 35.0325 55.748 34.5 55.748H33.825V55.9725Z" fill="#004F9F"/>
<path d="M41.4749 67.092C36.0524 67.3539 30.0975 68.4539 24.7875 70.1676C22.815 70.8036 18.9825 72.2927 18.1275 72.7492L17.94 72.8465L18.5325 74.0812C18.855 74.7621 19.1175 75.3533 19.125 75.3982C19.125 75.4431 18.4725 75.8022 17.6775 76.1914C16.335 76.8648 14.325 78.0022 14.325 78.092C14.325 78.2118 19.0275 86.8771 19.0875 86.8771C19.1325 86.8771 19.6725 86.6451 20.2875 86.3607C22.8 85.2159 25.8 84.1233 28.425 83.3975C29.415 83.1281 29.8875 82.9635 29.88 82.8961C29.8725 82.8437 29.6625 81.9308 29.4 80.8682C29.145 79.7982 28.965 78.9077 28.995 78.8703C29.0775 78.7954 31.53 78.2716 33 78.0172C36.8175 77.3512 39.7724 77.0818 43.8074 77.022C48.4124 76.9546 52.26 77.2764 56.625 78.092C57.78 78.309 60.5325 78.9301 60.525 78.9676C60.525 78.975 60.2925 79.8954 60.0075 81.0104L59.4975 83.0458L60.5924 83.3227C62.9474 83.9213 66.3749 85.1485 69.0674 86.3682C69.7874 86.69 70.3799 86.9444 70.3949 86.9369C70.4549 86.8696 75.0224 78.3165 75.0524 78.2118C75.0749 78.1145 74.8575 77.9499 74.175 77.5308C73.2375 76.9696 70.5374 75.5778 70.3724 75.5778C70.3199 75.5778 70.275 75.5478 70.275 75.5104C70.275 75.4655 70.53 74.8818 70.8375 74.2084C71.145 73.5349 71.4 72.9512 71.4 72.9063C71.4 72.7492 67.56 71.2077 65.175 70.4145C60.06 68.7084 55.3649 67.7431 49.6124 67.2267C48.3974 67.1145 42.8699 67.0247 41.4749 67.092ZM46.7775 68.6186C53.205 68.858 59.3399 70.0029 65.3249 72.0832C66.7574 72.5771 69.2175 73.5274 69.3225 73.6322C69.405 73.707 66.8325 79.2444 66.72 79.2444C66.6675 79.2444 66.1949 79.0873 65.6624 78.9002C62.9474 77.9499 59.6924 77.0968 56.5499 76.5206C53.2649 75.9145 50.43 75.6227 46.875 75.5029C39.225 75.256 31.5225 76.2961 24.2625 78.5485C23.52 78.7805 22.83 78.975 22.7325 78.975C22.575 78.9825 22.44 78.7431 21.2925 76.3261C20.595 74.8669 20.025 73.6471 20.025 73.6247C20.025 73.5124 23.115 72.3301 25.0875 71.6866C27.495 70.9084 29.2425 70.4444 32.325 69.7784C33.1275 69.6063 35.4299 69.2322 36.6749 69.075C40.1624 68.6261 43.305 68.4839 46.7775 68.6186ZM20.52 78.2716C21.99 81.3995 22.95 83.5397 22.89 83.5995C22.86 83.6295 22.725 83.6744 22.5975 83.7043L22.3575 83.7492L20.745 80.524C19.8525 78.7505 19.125 77.2689 19.125 77.2315C19.125 77.1791 19.8075 76.8499 19.8525 76.8798C19.86 76.8873 20.16 77.5159 20.52 78.2716ZM70.0049 77.0744L70.3499 77.2315L68.6999 80.5165C67.7924 82.3274 67.0349 83.809 67.0199 83.809C66.9074 83.809 66.525 83.6295 66.525 83.5771C66.525 83.5322 67.05 82.3648 67.695 80.9805C69.33 77.4635 69.5849 76.9247 69.6224 76.9247C69.6374 76.9247 69.8099 76.992 70.0049 77.0744ZM20.04 80.8458L21.6675 84.0934L21.36 84.2206C21.1125 84.3179 21.0375 84.3254 20.985 84.2431C20.865 84.0485 17.7 77.9948 17.7 77.9499C17.7 77.89 18.225 77.6056 18.3375 77.5982C18.3825 77.5982 19.1475 79.0573 20.04 80.8458ZM71.4375 77.7628C71.625 77.8526 71.775 77.9499 71.775 77.9723C71.775 78.0247 68.49 84.2655 68.43 84.3254C68.3775 84.3852 67.8 84.1757 67.8 84.0934C67.8 84.0186 71.0399 77.6056 71.0774 77.5982C71.0849 77.5982 71.25 77.673 71.4375 77.7628ZM18.615 81.4968C19.515 83.2029 20.235 84.6322 20.22 84.6771C20.205 84.722 20.085 84.7968 19.9575 84.8417C19.7325 84.9165 19.7175 84.909 19.545 84.6097C19.4025 84.3628 16.8225 79.5512 16.4325 78.8179C16.3575 78.6607 16.3725 78.6308 16.59 78.4961C16.725 78.4138 16.8675 78.3539 16.905 78.3689C16.9425 78.3839 17.715 79.7907 18.615 81.4968ZM72.8099 78.4961C72.9899 78.6084 73.0499 78.6907 73.0124 78.7805C72.9449 78.975 69.8175 84.8118 69.7425 84.8866C69.6675 84.9689 69.12 84.7369 69.165 84.6471C69.27 84.3852 72.495 78.3465 72.525 78.3465C72.5475 78.3465 72.6749 78.4138 72.8099 78.4961ZM23.445 81.205C23.5575 81.3172 24.225 82.8737 24.225 83.0233C24.225 83.1356 23.775 83.3152 23.6925 83.2329C23.6175 83.1505 22.725 81.1825 22.725 81.0927C22.725 80.988 23.325 81.0778 23.445 81.205ZM66.3 82.1403C65.79 83.2329 65.775 83.2478 65.5425 83.2329C65.415 83.2329 65.2725 83.188 65.235 83.1505C65.19 83.1056 65.3025 82.739 65.55 82.1403C65.925 81.2349 65.9474 81.1975 66.2174 81.1301C66.8699 80.958 66.8625 80.9281 66.3 82.1403ZM25.1775 81.5866C25.2225 81.639 25.35 81.8859 25.455 82.1478L25.6425 82.6193L25.44 82.6941C25.3275 82.7315 25.1925 82.7839 25.14 82.7988C25.0425 82.8363 24.93 82.6193 24.6 81.7961L24.4425 81.392L24.765 81.4444C24.945 81.4744 25.125 81.5342 25.1775 81.5866ZM64.9499 81.4893C64.9499 81.5866 64.4925 82.7016 64.4175 82.7914C64.3725 82.8437 63.825 82.7165 63.825 82.6492C63.825 82.5444 64.1625 81.7288 64.2375 81.6465C64.29 81.5941 64.4474 81.5193 64.5824 81.4893C64.9424 81.407 64.9499 81.407 64.9499 81.4893ZM26.775 81.8635C27.615 82.0505 27.6075 82.0356 26.895 82.2376L26.3925 82.3798L26.28 82.1254C26.22 81.9832 26.175 81.8485 26.175 81.8261C26.175 81.7662 26.3925 81.7812 26.775 81.8635ZM63.1875 82.0655C63.12 82.2152 63.0599 82.3573 63.0449 82.3723C62.9999 82.4097 62.025 82.1329 62.025 82.0805C62.025 82.0356 62.9249 81.8186 63.2099 81.7961C63.2774 81.7886 63.2775 81.856 63.1875 82.0655Z" fill="#004F9F"/>
<path d="M53.655 69.8311C53.6775 69.9284 53.7 70.0481 53.7 70.093C53.7 70.1454 53.7525 70.1903 53.8125 70.1903C54.0675 70.1903 54.375 70.4297 54.63 70.8413C54.78 71.0808 54.9 71.3052 54.9 71.3501C54.9 71.4025 54.5475 71.3726 53.8425 71.2603C53.2575 71.1631 52.77 71.0957 52.755 71.1107C52.74 71.1257 52.77 71.2379 52.815 71.3651C52.89 71.5522 52.95 71.6046 53.19 71.6345C53.5425 71.6794 53.7 71.7991 53.7 72.0236C53.7 72.1733 53.6475 72.2032 53.3175 72.2481L52.9425 72.3005L52.9875 72.5848C53.0325 72.8542 53.025 72.8692 52.725 72.9889C52.3725 73.1236 52.1025 73.1386 51.8925 73.0338C51.525 72.8318 51.8775 72.5399 52.395 72.6223C52.7475 72.6746 52.77 72.6447 52.65 72.3304C52.5975 72.1808 52.53 72.1359 52.35 72.1359C52.23 72.1359 52.125 72.0984 52.125 72.061C52.125 72.0161 52.185 71.9862 52.26 71.9862C52.4775 71.9862 52.725 71.7692 52.725 71.5746C52.725 71.3726 52.335 71.0134 52.1175 71.0134C52.035 71.0134 51.87 71.0658 51.7575 71.1257C51.4125 71.2978 51.3525 71.6195 51.6075 71.9413L51.765 72.1433L51.57 72.3229C51.345 72.5325 51.3225 72.7195 51.4875 73.0413C51.795 73.6325 52.935 73.7597 53.07 73.2209L53.115 73.0263L53.295 73.2808C53.5125 73.6025 53.835 73.7372 54.2175 73.6774L54.5175 73.6325L54.4725 73.8869C54.4425 74.1039 54.465 74.1563 54.66 74.2984L54.885 74.4556L54.93 74.2535C54.9525 74.1338 55.0425 73.5876 55.125 73.0338C55.215 72.4801 55.2975 72.0161 55.3125 72.0012C55.3275 71.9862 55.5675 72.0086 55.8525 72.0535C56.1825 72.1059 56.3925 72.1808 56.46 72.2631C56.6325 72.5025 56.535 72.6148 56.115 72.6896C55.725 72.7644 55.7175 72.7644 55.77 72.9889C55.8675 73.4304 56.04 73.7821 56.2725 73.9767C56.46 74.1338 56.565 74.1638 56.865 74.1413L57.225 74.1189V74.3882C57.225 74.5753 57.2775 74.7025 57.405 74.8223C57.6225 75.0243 57.5925 75.1141 57.87 73.6699C57.9825 73.0937 58.095 72.5998 58.125 72.5624C58.1475 72.5325 58.35 72.5399 58.56 72.5923C58.9875 72.6821 58.995 72.6821 58.8525 73.2957C58.7925 73.5427 58.71 73.6923 58.5975 73.7447L58.44 73.827L58.635 74.1937C58.83 74.5603 59.1 74.7325 59.1 74.5005C59.1 74.3284 59.2125 74.2984 59.6025 74.3808L59.97 74.4631L59.895 74.8372C59.8275 75.1889 59.8275 75.2189 60.015 75.4059L60.21 75.6005L60.2925 75.3086C60.33 75.1515 60.435 74.7325 60.525 74.3808C60.855 73.0488 60.8025 73.161 61.095 73.2134C61.365 73.2658 61.3725 73.2508 61.305 72.9814C61.2675 72.8467 61.1325 72.7719 60.645 72.6297C59.61 72.3155 55.89 71.5372 55.4175 71.5372C55.2225 71.5372 55.1775 71.4774 54.8775 70.8413C54.48 70.0032 54.1875 69.6665 53.85 69.6665C53.6325 69.6665 53.61 69.6889 53.655 69.8311ZM52.3875 71.5372C52.3875 71.6869 52.3425 71.7318 52.1775 71.7467C52.0425 71.7617 51.96 71.7318 51.93 71.6569C51.8475 71.4474 51.96 71.2978 52.1775 71.3277C52.3425 71.3427 52.3875 71.3876 52.3875 71.5372ZM54.72 72.278C54.645 72.9291 54.6075 73.0039 54.345 73.0937C54.06 73.1984 53.6325 73.2059 53.49 73.1161C53.2875 72.9889 53.43 72.7869 53.775 72.7046C54.105 72.6223 54.1125 72.6148 54.105 72.3379C54.0975 72.1882 54.0375 71.9937 53.97 71.9189C53.9025 71.8515 53.85 71.7692 53.85 71.7542C53.85 71.7318 54.06 71.7542 54.3075 71.7916L54.765 71.8665L54.72 72.278ZM57.225 72.3005C57.555 72.3753 57.6075 72.4127 57.57 72.5399C57.555 72.6297 57.51 72.8617 57.4875 73.0563C57.4425 73.3481 57.39 73.4304 57.2175 73.5202C56.76 73.7597 55.9425 73.5801 56.1825 73.2882C56.2275 73.2284 56.3475 73.1835 56.4525 73.1835C56.9025 73.1835 57.015 72.9515 56.82 72.4726C56.6925 72.1808 56.6925 72.1808 57.225 72.3005ZM60.0975 72.9515C60.33 73.0413 60.33 73.0638 60.1875 73.6549C60.09 74.074 60 74.2835 60 74.0964C60 74.044 59.955 74.0066 59.91 74.0066C59.8575 74.0066 59.685 73.9692 59.535 73.9318C59.2275 73.842 59.2275 73.827 59.415 73.0787C59.475 72.8168 59.505 72.7944 59.685 72.8318C59.7975 72.8542 59.9775 72.9066 60.0975 72.9515Z" fill="#004F9F"/>
<path d="M41.925 70.572C41.2425 70.5944 40.3425 70.6468 39.9225 70.6767L39.1575 70.7366L39.27 70.9461C39.345 71.0958 39.435 71.163 39.555 71.163C39.72 71.163 39.735 71.2005 39.78 71.7618C39.825 72.2407 39.87 72.4052 40.02 72.5773C40.2225 72.8242 40.6425 72.9889 40.9125 72.944C41.0625 72.914 41.1 72.9441 41.115 73.0937C41.13 73.2209 41.2275 73.3407 41.385 73.4305L41.6325 73.5725L41.58 72.2931L41.5275 71.0135H42.1725H42.825V71.4175V71.8216L42.585 71.8066C42.3675 71.7991 42.3375 71.8216 42.315 72.0087C42.2925 72.1883 42.39 72.3229 42.9675 72.9066C43.5075 73.4603 43.665 73.5726 43.74 73.4978C43.815 73.423 43.755 73.3257 43.44 73.0114C43.0725 72.6373 43.0575 72.6073 43.1775 72.4876C43.275 72.3903 43.305 72.2182 43.305 71.672L43.3125 70.9761L43.8975 70.9536L44.475 70.9312V71.178C44.475 71.3127 44.4975 71.5522 44.5275 71.7094C44.565 71.9563 44.55 72.0012 44.4075 72.0386C44.1825 72.0985 44.2125 72.2032 44.5425 72.5698C44.8725 72.929 45 72.9665 45 72.6971C45 72.5175 45.0225 72.51 45.4125 72.51H45.825V72.8766C45.825 73.1834 45.855 73.2584 46.02 73.3706C46.125 73.438 46.2375 73.4754 46.26 73.4454C46.29 73.4155 46.3275 72.8617 46.3425 72.2032L46.365 71.0135H46.8C47.0475 71.0135 47.265 71.0509 47.2875 71.0883C47.3775 71.2305 47.2425 72.1359 47.13 72.1359C46.935 72.1359 46.9575 72.278 47.22 72.6147C47.505 72.9889 47.6775 73.0488 47.715 72.7869C47.73 72.6971 47.7825 72.6222 47.835 72.6297C47.88 72.6372 48.0675 72.6448 48.2325 72.6448L48.5475 72.6597L48.51 72.9965C48.4725 73.2958 48.495 73.3556 48.66 73.4829C48.7575 73.5652 48.87 73.6324 48.9 73.6324C48.96 73.6324 49.0125 73.1834 49.095 71.8889L49.14 71.163H49.4325H49.7325L49.62 70.9461C49.5075 70.7291 49.4925 70.7291 48.6975 70.6767C48.2475 70.6543 47.4525 70.6018 46.92 70.5644C45.87 70.4821 43.8975 70.4897 41.925 70.572ZM45.825 71.5447V72.0686L45.435 72.0461L45.0375 72.0237L45.015 71.5147L44.9925 71.0135H45.4125H45.825V71.5447ZM41.025 71.6795C41.025 72.2257 41.01 72.2781 40.8375 72.3903C40.5075 72.6073 40.3725 72.5475 40.32 72.1658C40.2975 71.9713 40.275 71.6495 40.275 71.455V71.0883H40.65H41.025V71.6795ZM48.6 71.6495V72.2106H48.1875H47.775V71.8141C47.775 71.1482 47.8125 71.0883 48.2325 71.0883H48.6V71.6495Z" fill="#004F9F"/>
<path d="M35.9999 71.1704C34.3349 71.4323 31.8224 71.9337 29.9249 72.3752C28.8749 72.6221 28.0049 72.8316 27.9899 72.8466C27.9824 72.8541 28.0424 72.9439 28.1249 73.0486L28.2674 73.2357L29.1824 73.0187C29.6774 72.899 30.0974 72.8092 30.1124 72.8241C30.1274 72.8391 30.1499 72.9289 30.1649 73.0337C30.1874 73.2058 30.1499 73.2282 29.4749 73.4078C28.3949 73.6996 28.3574 73.7595 29.0249 73.999C29.5274 74.186 29.7824 74.4554 29.6474 74.6724C29.5649 74.7922 29.4149 74.8071 29.1224 74.7173C28.9874 74.6724 28.9349 74.7024 28.8749 74.8595C28.7699 75.1439 28.8449 75.2561 29.2424 75.3908C29.4374 75.4507 29.6999 75.6078 29.8124 75.7275C30.0149 75.9371 30.2999 76.0343 30.2999 75.8922C30.2999 75.8622 30.1724 75.7051 30.0074 75.5479L29.7224 75.2711L29.9324 75.0541C30.2774 74.7098 30.2024 74.2684 29.7674 74.0364C29.4749 73.8867 29.5574 73.7969 30.0224 73.7371C30.3074 73.6922 30.3749 73.7071 30.3749 73.7969C30.3749 73.8643 30.4274 74.1486 30.4949 74.4405C30.5999 74.9194 30.6374 74.9792 30.8399 75.0466C30.9674 75.0915 31.0874 75.1289 31.0949 75.1289C31.1624 75.1289 31.1099 74.8071 30.8999 73.9316C30.6149 72.7493 30.6149 72.6745 30.8849 72.6146C30.9974 72.5922 31.1399 72.5547 31.2074 72.5398C31.3049 72.5098 31.3574 72.652 31.4924 73.3105C31.7774 74.6575 31.7849 74.6799 32.0474 74.7922C32.1824 74.8445 32.2949 74.882 32.3099 74.867C32.3249 74.8595 32.2274 74.3507 32.1074 73.7371C31.9799 73.1309 31.8749 72.5772 31.8749 72.5024C31.8749 72.4051 31.9574 72.3602 32.1974 72.3228C32.3699 72.3003 32.7749 72.2255 33.1049 72.1656C33.4274 72.0983 33.7199 72.0758 33.7499 72.1132C33.7799 72.1432 33.8249 72.3303 33.8474 72.5173L33.8924 72.8615L33.4124 72.9513C32.4599 73.1235 32.3549 73.2432 32.8424 73.6248C33.2174 73.9241 33.3749 73.9241 33.3749 73.6323C33.3749 73.4452 33.4049 73.4078 33.6374 73.3629C33.7874 73.3405 33.9224 73.333 33.9449 73.3554C33.9749 73.3779 34.0274 73.5874 34.0799 73.8194C34.1549 74.1935 34.1924 74.2609 34.4099 74.3432C34.7099 74.4704 34.7099 74.5078 34.4624 73.0935C34.3574 72.5098 34.2749 72.0085 34.2749 71.9786C34.2749 71.9112 35.0549 71.7615 35.1149 71.8214C35.1374 71.8513 35.1899 72.0833 35.2349 72.3452C35.2949 72.7792 35.2874 72.8241 35.1449 72.899C35.0024 72.9738 35.0099 72.9962 35.3174 73.2656C35.6999 73.6024 35.9249 73.6473 35.9249 73.3779C35.9249 73.2207 35.9699 73.1908 36.2699 73.1459C36.4574 73.1235 36.6299 73.116 36.6524 73.1309C36.6674 73.1534 36.7049 73.303 36.7274 73.4752C36.7574 73.7146 36.8099 73.7969 37.0049 73.8867C37.2074 73.984 37.2374 73.984 37.2599 73.8942C37.2749 73.8343 37.2149 73.2881 37.1324 72.682C37.0424 72.0684 36.9749 71.5445 36.9749 71.5146C36.9749 71.4847 37.0724 71.4622 37.1849 71.4622C37.4699 71.4622 37.5149 71.4024 37.3724 71.1928C37.2374 70.9833 37.1849 70.9833 35.9999 71.1704ZM36.4799 71.7391C36.5024 71.8588 36.5399 72.1058 36.5699 72.2928C36.6149 72.6371 36.6149 72.6371 36.3749 72.6894C35.8199 72.7942 35.7974 72.7792 35.7149 72.2255C35.6774 71.9486 35.6474 71.7167 35.6624 71.7017C35.6774 71.6867 36.1424 71.582 36.3899 71.5445C36.4124 71.5371 36.4574 71.6269 36.4799 71.7391Z" fill="#004F9F"/>
<path d="M48.3 73.8343C48.3075 74.0513 48.4876 74.2309 48.7051 74.2309C48.9751 74.2309 49.2601 74.388 49.5676 74.7098C49.8451 74.9941 49.9501 75.039 49.9501 74.8819C49.9501 74.7397 49.2225 73.9465 48.9675 73.8193C48.6675 73.6622 48.3 73.6697 48.3 73.8343Z" fill="#004F9F"/>
<path d="M36.675 74.1712C36.6825 74.3957 36.8776 74.508 37.2976 74.5454C37.6276 74.5753 37.815 74.6352 38.07 74.8148C38.415 75.0617 38.55 75.1066 38.55 74.9869C38.55 74.9046 38.0176 74.4631 37.6501 74.2386C37.3501 74.059 36.675 74.0141 36.675 74.1712Z" fill="#004F9F"/>
<path d="M59.5199 75.7049C59.5874 75.9968 59.5949 76.0042 59.8424 76.0491C60.0674 76.094 60.4424 76.4233 60.7199 76.8124C60.9599 77.1491 61.0124 76.992 60.7949 76.5655C60.4574 75.907 60.0149 75.5029 59.6249 75.5029C59.4974 75.5029 59.4824 75.5328 59.5199 75.7049Z" fill="#004F9F"/>
</g>
</svg>
