<svg width="379" height="359" viewBox="0 0 379 359" fill="none" xmlns="http://www.w3.org/2000/svg">
<rect x="7" y="0.318359" width="372" height="342" rx="35" fill="white" fill-opacity="0.6"/>
<rect x="268" y="336.318" width="37" height="18" rx="9" fill="white" fill-opacity="0.6"/>
<path d="M13.4404 229C13.4456 256.947 13.3968 284.396 13.477 311.844C13.5184 326.011 22.6334 335.374 36.8093 335.455C65.3598 335.619 93.9118 335.504 122.897 335.504C115.437 332.795 112.583 327.866 114.932 322.266C115.658 320.537 116.658 318.92 118.747 318.729C121.111 318.513 121.871 320.358 122.392 322.131C123.547 326.069 125.779 328.533 130.164 328.483C131.925 328.463 133.552 328.193 134.312 326.378C135.131 324.423 134.366 322.728 132.929 321.44C130.154 318.953 126.562 317.889 123.319 316.223C116.001 312.464 113.528 308.017 114.504 301.302C115.335 295.592 119.162 293.166 123.998 291.665C130.243 289.726 136.507 290.508 142.714 291.932C144.494 292.34 146.425 292.995 146.202 295.424C145.909 298.634 147.634 302.279 145.105 304.949C143.697 306.436 141.713 305.3 140.349 303.782C138.511 301.738 136.256 300.394 133.476 300.102C131.947 299.941 130.346 299.916 129.66 301.652C129.094 303.084 129.841 304.351 130.934 305.163C133.729 307.24 136.396 309.735 139.538 311.055C150.629 315.714 149.995 327.798 142.314 333.489C141.935 333.769 141.694 334.236 141.007 335.09C167.44 335.09 193.438 335.09 219.763 335.09C217.082 333.343 214.663 331.382 213.351 328.355C210.258 321.219 213.414 314.297 221.154 311.926C223.834 311.106 226.73 311.004 229.436 310.247C231.744 309.602 234.641 309.201 234.56 305.8C234.504 303.467 235.658 300.566 232.404 299.337C229.136 298.103 228.056 300.643 226.792 302.801C225.779 304.53 224.681 306.182 222.91 307.271C220.983 308.456 219.084 308.36 217.315 307.068C215.442 305.698 214.364 303.902 215.131 301.466C216.223 297.996 218.076 294.962 221.546 293.608C229.344 290.563 237.167 290.606 244.635 294.66C249.413 297.253 251.588 301.617 251.683 306.982C251.762 311.472 251.666 315.964 251.7 320.456C251.747 326.733 252.391 327.197 258.824 325.842C259.424 325.715 260.055 325.735 260.9 325.669C261.655 331.235 257.927 333.079 254.042 333.887C249.365 334.86 244.429 335.294 239.89 332.97C235.91 330.933 232.941 333.639 229.625 335.431C237.941 335.431 246.262 335.614 254.569 335.352C258.585 335.225 260.526 336.314 260.104 340.604C259.755 344.15 261.444 348.236 254.906 348.221C181.064 348.05 107.22 348.179 33.3774 348.045C15.6629 348.013 1.04314 332.453 0.0834829 313.357C0.0167354 312.029 0.0278146 310.696 0.027655 309.365C0.0166748 218.537 -0.0389472 127.708 0.0478785 36.8799C0.061728 22.3923 5.79913 10.7757 18.902 3.5276C23.1845 1.15867 27.6899 -0.00413967 32.7079 1.10725e-05C137.485 0.0867813 242.263 0.0633002 347.04 0.0732777C364.179 0.0749069 378.831 14.6653 378.834 31.754C378.849 126.242 378.69 220.731 379 315.218C379.053 331.523 364.241 347.275 347.181 348.043C338.882 348.416 330.545 347.89 322.24 348.19C316.97 348.38 317.427 345.128 317.34 341.695C317.247 337.99 317.508 335.189 322.512 335.428C329.316 335.753 336.147 335.547 342.965 335.493C356.536 335.385 365.889 326.548 366.392 313.006C366.701 304.7 366.498 296.374 366.497 288.057C366.478 204.882 366.427 121.706 366.476 38.5311C366.481 30.9608 365.522 23.972 359.604 18.4975C354.793 14.0464 349.107 12.5307 342.686 12.539C294.622 12.6008 246.557 12.5756 198.493 12.5693C145.106 12.5624 91.7196 12.534 38.333 12.5439C25.3694 12.5463 16.5895 18.4165 14.09 28.9528C13.4116 31.8125 13.4816 34.888 13.4799 37.8646C13.4432 101.41 13.4453 164.956 13.4404 229ZM234.477 323.738C234.016 321.426 236.576 317.55 231.775 317.475C229.211 317.435 227.375 319.587 226.401 321.948C225.655 323.755 226.749 325.22 228.303 325.985C230.597 327.114 232.747 326.83 234.477 323.738Z" fill="#30478B"/>
<path d="M282.932 112.923C310.399 132.126 337.546 151.168 364.693 170.211C358.635 171.924 352.864 172.227 347.135 170.745C319.978 163.72 292.834 156.648 265.69 149.572C262.611 148.77 259.512 148.485 256.327 148.488C213.916 148.531 171.504 148.629 129.094 148.434C119.551 148.39 110.812 151.588 101.836 153.792C81.5302 158.777 61.2834 164.024 41.1173 169.548C34.1048 171.468 27.2033 172.121 20.0678 171.359C19.4918 169.165 21.2408 168.66 22.3514 167.88C49.5635 148.777 76.9785 129.958 103.972 110.551C125.017 95.4206 145.539 79.5621 166.302 64.0382C171.227 60.3561 176.162 56.6869 181.134 53.0686C186.665 49.0432 197.145 49.0954 202.672 53.2086C229.33 73.0456 255.968 92.9085 282.932 112.923ZM164.161 137.745C190.62 137.745 217.079 137.745 243.538 137.745C243.71 137.19 243.882 136.636 244.054 136.081C226.842 113.254 209.63 90.4269 191.805 66.7879C174.114 90.2592 157.027 112.93 139.282 136.473C148.141 138.749 155.743 137.314 164.161 137.745ZM141.407 95.2164C126.219 106.314 111.031 117.411 94.6876 129.352C104.783 131.802 113.341 133.643 121.745 136.024C125.493 137.086 127.526 136.005 129.644 133.058C138.554 120.658 147.762 108.471 156.635 96.046C162.12 88.3664 168.253 81.1175 173.681 71.7705C162.369 79.9777 152.171 87.3772 141.407 95.2164ZM231.866 87.747C225.444 83.1012 219.022 78.4553 212.6 73.8095C212.293 75.348 212.548 76.1494 213.019 76.7935C227.095 96.0633 241.204 115.31 255.271 134.586C256.652 136.479 258.173 136.815 260.431 136.24C268.141 134.276 275.914 132.56 283.65 130.697C284.884 130.4 286.302 130.173 286.82 127.789C268.851 114.699 250.647 101.438 231.866 87.747ZM290.42 138.555C286.481 140.055 282.034 139.94 277.42 142.61C292.396 146.599 306.532 150.364 320.669 154.129C320.805 153.729 320.941 153.328 321.077 152.928C315.763 148.979 310.147 145.37 305.227 140.979C300.834 137.058 296.431 136.281 290.42 138.555ZM64.2885 151.518C63.6554 152.318 62.0669 152.356 62.397 154.373C76.6258 150.524 90.7484 146.703 104.871 142.882C99.8899 140.328 95.0894 139.144 90.3752 137.682C86.4089 136.452 83.221 137.066 79.9329 139.843C75.1378 143.893 69.8761 147.391 64.2885 151.518Z" fill="#30478B"/>
<path d="M194.984 161.24C208.266 161.228 221.064 161.19 233.861 161.228C236.344 161.235 238.829 161.499 241.309 161.707C245.57 162.063 247.64 164.505 247.278 168.678C246.932 172.676 244.33 174.407 240.464 174.412C229.661 174.426 218.858 174.427 208.055 174.437C206.559 174.439 205.064 174.455 203.568 174.476C200.689 174.516 199.365 176.091 199.281 178.862C199.251 179.858 199.251 180.856 199.25 181.853C199.236 227.07 199.236 272.287 199.186 317.504C199.182 320.751 199.196 323.72 202.428 325.775C204.751 327.253 204.457 329.921 203.912 332.156C203.256 334.844 200.706 334.179 198.881 334.06C193.817 333.732 188.635 335.254 183.654 332.943C182.668 332.486 181.096 333.216 179.813 333.489C170.835 335.396 162.576 333.858 156.958 326.32C151.088 318.443 151.327 309.388 155.599 300.816C159.298 293.394 169.39 289.779 178.078 292.002C179.658 292.406 181.153 293.246 182.884 292.9C184.304 291.323 183.848 289.41 183.85 287.653C183.891 252.245 183.9 216.836 183.892 181.427C183.89 174.684 183.625 174.447 176.864 174.437C166.56 174.422 156.255 174.443 145.951 174.433C139.24 174.427 135.943 172.381 135.882 168.227C135.818 163.915 139.063 162.049 145.681 161.661C161.953 160.707 178.239 162.532 194.984 161.24ZM168.239 315.21C168.244 316.374 168.209 317.54 168.262 318.702C168.518 324.313 171.547 327.665 176.253 327.58C180.725 327.499 183.642 324.233 183.812 318.837C183.933 315.017 183.936 311.181 183.745 307.365C183.515 302.749 179.903 299.193 175.854 299.296C172.225 299.389 168.63 303.098 168.303 307.3C168.123 309.615 168.25 311.954 168.239 315.21Z" fill="#30478B"/>
<path d="M136.362 268.488C136.868 262.446 138.535 260.778 143.99 260.662C148.643 260.564 153.306 260.458 157.95 260.666C161.634 260.831 163.202 258.992 163.354 255.707C163.553 251.392 163.537 247.066 163.542 242.745C163.559 229.278 163.588 215.81 163.518 202.342C163.483 195.78 162.885 195.283 156.343 195.274C152.353 195.268 148.357 195.418 144.376 195.235C139.352 195.004 135.964 192.056 136.097 188.362C136.246 184.228 139.173 181.826 144.429 181.79C153.904 181.723 163.38 181.854 172.854 181.736C177.336 181.68 179.153 183.763 179.146 188.091C179.101 214.527 179.089 240.964 179.134 267.4C179.142 271.914 177.289 274.212 172.611 274.166C163.635 274.079 154.657 274.221 145.683 274.069C141.803 274.003 137.919 273.464 136.362 268.488Z" fill="#30478B"/>
<path d="M246.349 263.313C248.496 270.044 246.182 273.831 239.562 274.035C229.939 274.333 220.301 274.112 210.669 274.13C205.751 274.139 204.624 271.166 204.64 266.924C204.72 245.329 204.707 223.735 204.727 202.14C204.732 197.323 204.768 192.505 204.731 187.688C204.7 183.594 206.454 181.652 210.76 181.724C220.39 181.885 230.025 181.721 239.656 181.804C244.863 181.849 247.206 183.967 247.223 188.278C247.24 192.533 244.772 195.026 239.86 195.229C235.052 195.427 230.225 195.438 225.416 195.257C221.659 195.116 220.069 196.362 220.103 200.382C220.26 218.653 220.225 236.926 220.129 255.198C220.109 258.989 221.549 260.726 225.391 260.643C230.204 260.54 235.023 260.664 239.838 260.632C242.257 260.616 244.466 261.032 246.349 263.313Z" fill="#30478B"/>
<path d="M296.945 328.24C299.881 329.078 302.535 329.485 304.724 331.157C312.315 336.957 312.502 344.64 305.41 351.423C296.285 360.152 279.617 359.491 271.19 355.494C263.117 351.664 259.296 342.908 269.779 336.128C268.234 333.6 266.044 331.247 266.891 327.768C267.711 324.405 270.271 322.576 272.419 320.746C272.62 319.393 271.91 318.863 271.294 318.358C263.601 312.056 265.414 300.7 274.964 295.752C282.093 292.059 289.618 291.282 297.121 294.058C300.152 295.18 302.681 295.427 305.65 294.352C307.895 293.538 310.851 292.364 311.664 296.052C312.249 298.707 312.782 301.97 308.262 302.154C306.267 302.235 306.131 303.744 306.015 305.37C305.15 317.515 300.351 322.188 288.156 323.034C286.186 323.17 283.734 322.24 282.109 325.686C287.114 326.532 291.832 327.328 296.945 328.24ZM277.066 345.421C279.347 351.41 287.26 353.721 293.165 350.122C297.419 347.53 297.374 343.774 293.059 341.283C288.079 338.407 280.864 339.964 277.066 345.421ZM286.64 313.803C289.615 308.146 289.082 303.96 284.992 300.855C281.012 304.344 280.096 309.151 282.795 313.074C283.559 314.185 284.362 315.953 286.64 313.803Z" fill="#30478B"/>
<path d="M81.8672 303.854C77.8918 309.717 78.4325 321.094 82.6509 326.12C84.1823 327.944 84.5067 329.982 83.7056 332.173C82.879 334.434 80.8507 334.105 79.0652 334.118C73.5869 334.155 68.1082 334.15 62.6297 334.129C60.9787 334.123 59.1062 334.29 58.3892 332.322C57.622 330.218 57.2762 327.558 59.2691 326.345C63.4271 323.813 62.862 320.026 62.861 316.251C62.86 312.93 62.7136 309.601 62.8938 306.29C63.0628 303.186 60.9374 301.504 59.2276 299.529C57.8837 297.977 56.6116 296.42 57.6016 294.198C58.5864 291.988 60.6522 291.64 62.6477 291.815C68.1282 292.295 73.9148 289.972 79.0739 293.678C80.3776 294.615 81.5275 293.272 82.6814 292.707C94.2365 287.052 105.281 293.857 105.437 306.735C105.481 310.387 105.591 314.046 105.437 317.692C105.303 320.841 105.721 323.539 108.503 325.592C110.864 327.335 110.697 330.032 109.923 332.432C109.198 334.681 106.91 334.078 105.175 334.106C100.528 334.181 95.8782 334.145 91.23 334.108C89.2542 334.093 87.071 334.328 86.3639 331.735C85.7594 329.518 86.1003 327.533 87.731 325.74C91.1382 321.992 92.218 309.92 89.4883 305.807C87.7084 303.125 85.5702 301.065 81.8672 303.854Z" fill="#30478B"/>
<path d="M44.7152 254.93C51.7753 258.843 54.4919 264.969 54.0516 272.194C53.643 278.902 50.1224 284.172 43.772 286.981C37.603 289.709 30.9151 287.926 26.1841 282.603C21.1854 276.978 20.3245 268.242 24.1218 261.676C27.8076 255.303 34.1128 252.458 41.4948 253.885C42.4665 254.073 43.3967 254.476 44.7152 254.93Z" fill="#30478B"/>
<path d="M28.7907 332.357C28.0216 329.203 28.1758 326.685 30.9258 324.993C32.3137 324.139 32.8957 322.822 32.8914 321.201C32.8773 315.884 32.8738 310.567 32.8895 305.25C32.8973 302.604 30.7099 301.254 29.4604 299.358C26.464 294.81 27.6961 291.833 33.0421 291.779C53.1397 291.579 49.0708 290.027 49.4649 306.951C49.5462 310.439 49.5546 313.933 49.4574 317.42C49.3628 320.813 49.3556 323.919 52.853 326.074C54.9143 327.344 54.6252 329.919 54.0564 332.044C53.4309 334.379 51.3135 334.107 49.5194 334.12C44.2035 334.159 38.8869 334.154 33.5709 334.116C31.927 334.105 30.2033 334.199 28.7907 332.357Z" fill="#30478B"/>
</svg>
